<svg xmlns="http://www.w3.org/2000/svg" xmlns:xlink="http://www.w3.org/1999/xlink" viewBox="0 0 454.51 505.85"><defs><linearGradient id="a" x1="-184.38" y1="567.39" x2="455.39" y2="119.69" gradientUnits="userSpaceOnUse"><stop offset="0" stop-color="#a00a94"/><stop offset="1" stop-color="#adc9ff" stop-opacity="0"/></linearGradient><linearGradient id="b" x1="1456.77" y1="533.55" x2="38.34" y2="146.52" xlink:href="#a"/><linearGradient id="c" x1="905.21" y1="-565.38" x2="252.74" y2="281.63" xlink:href="#a"/><linearGradient id="d" x1="-194.51" y1="796.41" x2="380.97" y2="127.73" xlink:href="#a"/><linearGradient id="e" x1="1364.93" y1="719.77" x2="35.66" y2="97.69" xlink:href="#a"/><linearGradient id="f" x1="-198.65" y1="641.25" x2="394.33" y2="147.75" xlink:href="#a"/><linearGradient id="g" x1="869.89" y1="848.39" x2="260.39" y2="154.49" xlink:href="#a"/><linearGradient id="h" x1="38.07" y1="899.4" x2="289.68" y2="236.76" xlink:href="#a"/><linearGradient id="i" x1="572.68" y1="-521.7" x2="313.25" y2="173.76" xlink:href="#a"/><linearGradient id="j" x1="586.18" y1="-639.96" x2="110.67" y2="619.06" xlink:href="#a"/><linearGradient id="k" x1="1011.81" y1="-304.06" x2="97.93" y2="372.73" xlink:href="#a"/><linearGradient id="l" x1="-829.39" y1="667.14" x2="426.94" y2="205.13" xlink:href="#a"/><linearGradient id="m" x1="297.54" y1="-503.77" x2="236.76" y2="320.94" xlink:href="#a"/><linearGradient id="n" x1="619.22" y1="-512.04" x2="143.04" y2="476.8" xlink:href="#a"/><linearGradient id="o" x1="-117.81" y1="856.6" x2="233.22" y2="285" xlink:href="#a"/><linearGradient id="p" x1="699.5" y1="-94.18" x2="101.4" y2="377.35" xlink:href="#a"/><linearGradient id="q" x1="-317.46" y1="-294.77" x2="247.88" y2="369.94" xlink:href="#a"/><linearGradient id="r" x1="289.69" y1="-431.42" x2="239.68" y2="281.23" xlink:href="#a"/><linearGradient id="s" x1="158.24" y1="960.66" x2="234.82" y2="321.47" xlink:href="#a"/><radialGradient id="t" cx="356" cy="313.01" r="224.05" xlink:href="#a"/><linearGradient id="u" x1="514.43" y1="381.72" x2="65.97" y2="101.24" xlink:href="#a"/><linearGradient id="v" x1="602.85" y1="-8.34" x2="161.97" y2="152.62" xlink:href="#a"/><linearGradient id="w" x1="-126.45" y1="475" x2="403.42" y2="324.44" xlink:href="#a"/><linearGradient id="x" x1="-16.26" y1="63.92" x2="449.43" y2="416.4" xlink:href="#a"/><linearGradient id="y" x1="-100.26" y1="632.66" x2="269.58" y2="308.66" xlink:href="#a"/><linearGradient id="z" x1="-200.57" y1="769.41" x2="281.8" y2="303.23" xlink:href="#a"/><linearGradient id="A" x1="-116.71" y1="889.27" x2="298.02" y2="306.1" xlink:href="#a"/><linearGradient id="B" x1="-95.33" y1="649.68" x2="257.72" y2="323.09" xlink:href="#a"/><linearGradient id="C" x1="170.91" y1="870.04" x2="277.96" y2="351.36" xlink:href="#a"/><linearGradient id="D" x1="-187.46" y1="760.38" x2="197.94" y2="385.26" xlink:href="#a"/><linearGradient id="E" x1="651.72" y1="-52.19" x2="245.76" y2="216.48" xlink:href="#a"/><linearGradient id="F" x1="372.13" y1="-304.84" x2="250.24" y2="182.72" xlink:href="#a"/><linearGradient id="G" x1="498.93" y1="-457.48" x2="239.39" y2="216.78" xlink:href="#a"/><linearGradient id="H" x1="938.67" y1="-351.66" x2="203.32" y2="247.79" xlink:href="#a"/><linearGradient id="I" x1="577.2" y1="-504.41" x2="254.25" y2="183.17" xlink:href="#a"/><linearGradient id="J" x1="643.18" y1="-272.65" x2="304.67" y2="175.29" xlink:href="#a"/><linearGradient id="K" x1="-153.7" y1="604.72" x2="188.4" y2="344.54" xlink:href="#a"/><linearGradient id="L" x1="-83.28" y1="648.76" x2="171.49" y2="380.49" xlink:href="#a"/><linearGradient id="M" x1="-259.47" y1="371.47" x2="390.62" y2="357.46" xlink:href="#a"/><linearGradient id="N" x1="-112.98" y1="444.98" x2="372.54" y2="338.78" xlink:href="#a"/><linearGradient id="O" x1="615" y1="183.58" x2="65.65" y2="122.93" xlink:href="#a"/><linearGradient id="P" x1="30.39" y1="475.89" x2="314" y2="346.98" xlink:href="#a"/><linearGradient id="Q" x1="179.16" y1="569.68" x2="297.73" y2="377.86" xlink:href="#a"/><linearGradient id="R" x1="585.16" y1="147.06" x2="86.72" y2="92.03" xlink:href="#a"/><linearGradient id="S" x1="541.37" y1="67.89" x2="189.79" y2="106.96" xlink:href="#a"/></defs><g style="isolation:isolate"><path d="M426.14 105.41l-5-2.92-161.09-93-4.54-2.6a61.26 61.26 0 0 0-56.45 0l-4.7 2.72L79.68 75.83l-47.54 27.44c-.85.44-1.74 1-2.55 1.45A61.38 61.38 0 0 0 0 157.24v191.54a61.16 61.16 0 0 0 29.59 52.43c.89.57 1.78 1.1 2.72 1.59l163.12 94.14c.84.52 1.7 1 2.59 1.5a61.47 61.47 0 0 0 58.52 0l165.71-95.71a26.94 26.94 0 0 0 2.67-1.54 61.14 61.14 0 0 0 29.59-52.41V157.13a61.29 61.29 0 0 0-28.37-51.72zm-198.9 255.85A83.75 83.75 0 0 1 143.91 286l-.12-1.34c-.2-2.39-.32-4.78-.32-7.21a83.18 83.18 0 0 1 18.76-52.72c38.87-49.85 53.62-66.62 65-100.71 11.39 34 26.09 50.74 64.68 100.23h-.05a83.74 83.74 0 0 1-64.63 137.06z" fill="#fff"/><path d="M483 160.4v191.65a61.14 61.14 0 0 1-29.59 52.43 26.94 26.94 0 0 1-2.67 1.54c-124.46 70.6-270.8-20.9-278.34-116.75a83.78 83.78 0 1 0 148-61.8h.05c-38.59-49.49-53.29-66.27-64.68-100.23-7.22-23-22.7-40.69-44.83-52.16-26.74-13.89-66.13-17.1-102.73 4.06l114.61-66.26 4.7-2.72a61.26 61.26 0 0 1 56.45 0l4.54 2.59 161.09 93 5 2.92A61.29 61.29 0 0 1 483 160.4z" transform="translate(-28.49 -3.27)" style="mix-blend-mode:multiply" fill="url(#a)"/><path d="M483 160.4v191.65a61.14 61.14 0 0 1-29.59 52.43 26.94 26.94 0 0 1-2.67 1.54c-124.46 70.6-270.8-20.9-278.34-116.75a83.78 83.78 0 1 0 148-61.8h.05c-38.59-49.49-53.29-66.27-64.68-100.23-7.22-23-22.7-40.69-44.83-52.16-26.74-13.89-66.13-17.1-102.73 4.06l114.61-66.26 4.7-2.72a61.26 61.26 0 0 1 56.45 0l4.54 2.59 161.09 93 5 2.92A61.29 61.29 0 0 1 483 160.4z" transform="translate(-28.49 -3.27)" style="mix-blend-mode:multiply" fill="url(#b)"/><path d="M483 160.4v191.65a61.14 61.14 0 0 1-29.59 52.43 26.94 26.94 0 0 1-2.67 1.54c-124.46 70.6-270.8-20.9-278.34-116.75a83.78 83.78 0 1 0 148-61.8h.05c-38.59-49.49-53.29-66.27-64.68-100.23-7.22-23-22.7-40.69-44.83-52.16-26.74-13.89-66.13-17.1-102.73 4.06l114.61-66.26 4.7-2.72a61.26 61.26 0 0 1 56.45 0l4.54 2.59 161.09 93 5 2.92A61.29 61.29 0 0 1 483 160.4z" transform="translate(-28.49 -3.27)" style="mix-blend-mode:multiply" fill="url(#c)"/><path d="M483 160.4v191.65a61.14 61.14 0 0 1-29.59 52.43 26.94 26.94 0 0 1-2.67 1.54c-124.46 70.6-270.8-20.9-278.34-116.75a83.78 83.78 0 1 0 148-61.8h.05c-38.59-49.49-53.29-66.27-64.68-100.23-7.22-23-22.7-40.69-44.83-52.16-26.74-13.89-66.13-17.1-102.73 4.06l114.61-66.26 4.7-2.72a61.26 61.26 0 0 1 56.45 0l4.54 2.59 161.09 93 5 2.92A61.29 61.29 0 0 1 483 160.4z" transform="translate(-28.49 -3.27)" style="mix-blend-mode:multiply" fill="url(#d)"/><path d="M483 160.4v191.65a61.14 61.14 0 0 1-29.59 52.43 26.94 26.94 0 0 1-2.67 1.54c-124.46 70.6-270.8-20.9-278.34-116.75a83.78 83.78 0 1 0 148-61.8h.05c-38.59-49.49-53.29-66.27-64.68-100.23-7.22-23-22.7-40.69-44.83-52.16-26.74-13.89-66.13-17.1-102.73 4.06l114.61-66.26 4.7-2.72a61.26 61.26 0 0 1 56.45 0l4.54 2.59 161.09 93 5 2.92A61.29 61.29 0 0 1 483 160.4z" transform="translate(-28.49 -3.27)" style="mix-blend-mode:multiply" fill="url(#e)"/><path d="M483 160.4v191.65a61.14 61.14 0 0 1-29.59 52.43 26.94 26.94 0 0 1-2.67 1.54c-124.46 70.6-270.8-20.9-278.34-116.75a83.78 83.78 0 1 0 148-61.8h.05c-38.59-49.49-53.29-66.27-64.68-100.23-7.22-23-22.7-40.69-44.83-52.16-26.74-13.89-66.13-17.1-102.73 4.06l114.61-66.26 4.7-2.72a61.26 61.26 0 0 1 56.45 0l4.54 2.59 161.09 93 5 2.92A61.29 61.29 0 0 1 483 160.4z" transform="translate(-28.49 -3.27)" style="mix-blend-mode:multiply" fill="url(#f)"/><path d="M483 160.4v191.65a61.14 61.14 0 0 1-29.59 52.43 26.94 26.94 0 0 1-2.67 1.54c-124.46 70.6-270.8-20.9-278.34-116.75a83.78 83.78 0 1 0 148-61.8h.05c-38.59-49.49-53.29-66.27-64.68-100.23-7.22-23-22.7-40.69-44.83-52.16-26.74-13.89-66.13-17.1-102.73 4.06l114.61-66.26 4.7-2.72a61.26 61.26 0 0 1 56.45 0l4.54 2.59 161.09 93 5 2.92A61.29 61.29 0 0 1 483 160.4z" transform="translate(-28.49 -3.27)" style="mix-blend-mode:multiply" fill="url(#g)"/><path d="M483 160.4v191.65a61.14 61.14 0 0 1-29.59 52.43 26.94 26.94 0 0 1-2.67 1.54c-124.46 70.6-270.8-20.9-278.34-116.75a83.78 83.78 0 1 0 148-61.8h.05c-38.59-49.49-53.29-66.27-64.68-100.23-7.22-23-22.7-40.69-44.83-52.16-26.74-13.89-66.13-17.1-102.73 4.06l114.61-66.26 4.7-2.72a61.26 61.26 0 0 1 56.45 0l4.54 2.59 161.09 93 5 2.92A61.29 61.29 0 0 1 483 160.4z" transform="translate(-28.49 -3.27)" style="mix-blend-mode:multiply" fill="url(#h)"/><path d="M483 160.4v191.65a61.14 61.14 0 0 1-29.59 52.43 26.94 26.94 0 0 1-2.67 1.54c-124.46 70.6-270.8-20.9-278.34-116.75a83.78 83.78 0 1 0 148-61.8h.05c-38.59-49.49-53.29-66.27-64.68-100.23-7.22-23-22.7-40.69-44.83-52.16-26.74-13.89-66.13-17.1-102.73 4.06l114.61-66.26 4.7-2.72a61.26 61.26 0 0 1 56.45 0l4.54 2.59 161.09 93 5 2.92A61.29 61.29 0 0 1 483 160.4z" transform="translate(-28.49 -3.27)" style="mix-blend-mode:multiply" fill="url(#i)"/><path d="M450.74 406L285 501.71a61.47 61.47 0 0 1-58.52 0c-.89-.49-1.75-1-2.59-1.5L60.8 406.07c-.94-.49-1.83-1-2.72-1.59a61.16 61.16 0 0 1-29.59-52.43V160.51A61.38 61.38 0 0 1 58.08 108c.81-.48 1.7-1 2.55-1.45l47.54-27.45c36.6-21.16 76-17.95 102.73-4.06 22.13 11.47 37.61 29.18 44.83 52.16-11.43 34.09-26.18 50.86-65 100.71A83.18 83.18 0 0 0 172 280.72c0 2.43.12 4.82.32 7.21l.12 1.34c7.5 95.85 153.84 187.35 278.3 116.73z" transform="translate(-28.49 -3.27)" style="mix-blend-mode:multiply" fill="url(#j)"/><path d="M450.74 406L285 501.71a61.47 61.47 0 0 1-58.52 0c-.89-.49-1.75-1-2.59-1.5L60.8 406.07c-.94-.49-1.83-1-2.72-1.59a61.16 61.16 0 0 1-29.59-52.43V160.51A61.38 61.38 0 0 1 58.08 108c.81-.48 1.7-1 2.55-1.45l47.54-27.45c36.6-21.16 76-17.95 102.73-4.06 22.13 11.47 37.61 29.18 44.83 52.16-11.43 34.09-26.18 50.86-65 100.71A83.18 83.18 0 0 0 172 280.72c0 2.43.12 4.82.32 7.21l.12 1.34c7.5 95.85 153.84 187.35 278.3 116.73z" transform="translate(-28.49 -3.27)" style="mix-blend-mode:multiply" fill="url(#k)"/><path d="M450.74 406L285 501.71a61.47 61.47 0 0 1-58.52 0c-.89-.49-1.75-1-2.59-1.5L60.8 406.07c-.94-.49-1.83-1-2.72-1.59a61.16 61.16 0 0 1-29.59-52.43V160.51A61.38 61.38 0 0 1 58.08 108c.81-.48 1.7-1 2.55-1.45l47.54-27.45c36.6-21.16 76-17.95 102.73-4.06 22.13 11.47 37.61 29.18 44.83 52.16-11.43 34.09-26.18 50.86-65 100.71A83.18 83.18 0 0 0 172 280.72c0 2.43.12 4.82.32 7.21l.12 1.34c7.5 95.85 153.84 187.35 278.3 116.73z" transform="translate(-28.49 -3.27)" style="mix-blend-mode:multiply" fill="url(#l)"/><path d="M450.74 406L285 501.71a61.47 61.47 0 0 1-58.52 0c-.89-.49-1.75-1-2.59-1.5L60.8 406.07c-.94-.49-1.83-1-2.72-1.59a61.16 61.16 0 0 1-29.59-52.43V160.51A61.38 61.38 0 0 1 58.08 108c.81-.48 1.7-1 2.55-1.45l47.54-27.45c36.6-21.16 76-17.95 102.73-4.06 22.13 11.47 37.61 29.18 44.83 52.16-11.43 34.09-26.18 50.86-65 100.71A83.18 83.18 0 0 0 172 280.72c0 2.43.12 4.82.32 7.21l.12 1.34c7.5 95.85 153.84 187.35 278.3 116.73z" transform="translate(-28.49 -3.27)" style="mix-blend-mode:multiply" fill="url(#m)"/><path d="M450.74 406L285 501.71a61.47 61.47 0 0 1-58.52 0c-.89-.49-1.75-1-2.59-1.5L60.8 406.07c-.94-.49-1.83-1-2.72-1.59a61.16 61.16 0 0 1-29.59-52.43V160.51A61.38 61.38 0 0 1 58.08 108c.81-.48 1.7-1 2.55-1.45l47.54-27.45c36.6-21.16 76-17.95 102.73-4.06 22.13 11.47 37.61 29.18 44.83 52.16-11.43 34.09-26.18 50.86-65 100.71A83.18 83.18 0 0 0 172 280.72c0 2.43.12 4.82.32 7.21l.12 1.34c7.5 95.85 153.84 187.35 278.3 116.73z" transform="translate(-28.49 -3.27)" style="mix-blend-mode:multiply" fill="url(#n)"/><path d="M450.74 406L285 501.71a61.47 61.47 0 0 1-58.52 0c-.89-.49-1.75-1-2.59-1.5L60.8 406.07c-.94-.49-1.83-1-2.72-1.59a61.16 61.16 0 0 1-29.59-52.43V160.51A61.38 61.38 0 0 1 58.08 108c.81-.48 1.7-1 2.55-1.45l47.54-27.45c36.6-21.16 76-17.95 102.73-4.06 22.13 11.47 37.61 29.18 44.83 52.16-11.43 34.09-26.18 50.86-65 100.71A83.18 83.18 0 0 0 172 280.72c0 2.43.12 4.82.32 7.21l.12 1.34c7.5 95.85 153.84 187.35 278.3 116.73z" transform="translate(-28.49 -3.27)" style="mix-blend-mode:multiply" fill="url(#o)"/><path d="M450.74 406L285 501.71a61.47 61.47 0 0 1-58.52 0c-.89-.49-1.75-1-2.59-1.5L60.8 406.07c-.94-.49-1.83-1-2.72-1.59a61.16 61.16 0 0 1-29.59-52.43V160.51A61.38 61.38 0 0 1 58.08 108c.81-.48 1.7-1 2.55-1.45l47.54-27.45c36.6-21.16 76-17.95 102.73-4.06 22.13 11.47 37.61 29.18 44.83 52.16-11.43 34.09-26.18 50.86-65 100.71A83.18 83.18 0 0 0 172 280.72c0 2.43.12 4.82.32 7.21l.12 1.34c7.5 95.85 153.84 187.35 278.3 116.73z" transform="translate(-28.49 -3.27)" style="mix-blend-mode:multiply" fill="url(#p)"/><path d="M450.74 406L285 501.71a61.47 61.47 0 0 1-58.52 0c-.89-.49-1.75-1-2.59-1.5L60.8 406.07c-.94-.49-1.83-1-2.72-1.59a61.16 61.16 0 0 1-29.59-52.43V160.51A61.38 61.38 0 0 1 58.08 108c.81-.48 1.7-1 2.55-1.45l47.54-27.45c36.6-21.16 76-17.95 102.73-4.06 22.13 11.47 37.61 29.18 44.83 52.16-11.43 34.09-26.18 50.86-65 100.71A83.18 83.18 0 0 0 172 280.72c0 2.43.12 4.82.32 7.21l.12 1.34c7.5 95.85 153.84 187.35 278.3 116.73z" transform="translate(-28.49 -3.27)" style="mix-blend-mode:multiply" fill="url(#q)"/><path d="M450.74 406L285 501.71a61.47 61.47 0 0 1-58.52 0c-.89-.49-1.75-1-2.59-1.5L60.8 406.07c-.94-.49-1.83-1-2.72-1.59a61.16 61.16 0 0 1-29.59-52.43V160.51A61.38 61.38 0 0 1 58.08 108c.81-.48 1.7-1 2.55-1.45l47.54-27.45c36.6-21.16 76-17.95 102.73-4.06 22.13 11.47 37.61 29.18 44.83 52.16-11.43 34.09-26.18 50.86-65 100.71A83.18 83.18 0 0 0 172 280.72c0 2.43.12 4.82.32 7.21l.12 1.34c7.5 95.85 153.84 187.35 278.3 116.73z" transform="translate(-28.49 -3.27)" style="mix-blend-mode:multiply" fill="url(#r)"/><path d="M450.74 406L285 501.71a61.47 61.47 0 0 1-58.52 0c-.89-.49-1.75-1-2.59-1.5L60.8 406.07c-.94-.49-1.83-1-2.72-1.59a61.16 61.16 0 0 1-29.59-52.43V160.51A61.38 61.38 0 0 1 58.08 108c.81-.48 1.7-1 2.55-1.45l47.54-27.45c36.6-21.16 76-17.95 102.73-4.06 22.13 11.47 37.61 29.18 44.83 52.16-11.43 34.09-26.18 50.86-65 100.71A83.18 83.18 0 0 0 172 280.72c0 2.43.12 4.82.32 7.21l.12 1.34c7.5 95.85 153.84 187.35 278.3 116.73z" transform="translate(-28.49 -3.27)" style="mix-blend-mode:multiply" fill="url(#s)"/><path d="M450.74 406L285 501.71a61.47 61.47 0 0 1-58.52 0c-.89-.49-1.75-1-2.59-1.5L60.8 406.07c-.94-.49-1.83-1-2.72-1.59a61.16 61.16 0 0 1-29.59-52.43V160.51A61.38 61.38 0 0 1 58.08 108c.81-.48 1.7-1 2.55-1.45l47.54-27.45c36.6-21.16 76-17.95 102.73-4.06 22.13 11.47 37.61 29.18 44.83 52.16-11.43 34.09-26.18 50.86-65 100.71A83.18 83.18 0 0 0 172 280.72c0 2.43.12 4.82.32 7.21l.12 1.34c7.5 95.85 153.84 187.35 278.3 116.73z" transform="translate(-28.49 -3.27)" style="mix-blend-mode:multiply" fill="url(#t)"/><path d="M28.49 195.05v-34.54A61.38 61.38 0 0 1 58.08 108c.81-.48 1.7-1 2.55-1.45l47.54-27.45c36.6-21.16 76-17.95 102.73-4.06 22.13 11.47 37.61 29.18 44.83 52.16-11.43 34.09-26.18 50.86-65 100.71a83.69 83.69 0 0 0-8.29 12.23c26.12-46.51-6.89-97.72-61.74-107-48.04-8-92.21 19.47-92.21 61.91z" transform="translate(-28.49 -3.27)" style="mix-blend-mode:multiply" fill="url(#u)"/><path d="M28.49 195.05v-34.54A61.38 61.38 0 0 1 58.08 108c.81-.48 1.7-1 2.55-1.45l47.54-27.45c36.6-21.16 76-17.95 102.73-4.06 22.13 11.47 37.61 29.18 44.83 52.16-11.43 34.09-26.18 50.86-65 100.71a83.69 83.69 0 0 0-8.29 12.23c26.12-46.51-6.89-97.72-61.74-107-48.04-8-92.21 19.47-92.21 61.91z" transform="translate(-28.49 -3.27)" style="mix-blend-mode:multiply" fill="url(#v)"/><path d="M483 305.85v46.2a61.14 61.14 0 0 1-29.59 52.43 26.94 26.94 0 0 1-2.67 1.54c-124.46 70.6-270.8-20.9-278.34-116.75a83.78 83.78 0 0 0 167-3.24c-1.78 52.75 46.6 83.64 87.6 80.69 30-2.16 56-23.98 56-60.87zm-143.51-22.38z" transform="translate(-28.49 -3.27)" style="mix-blend-mode:multiply" fill="url(#w)"/><path d="M483 305.85v46.2a61.14 61.14 0 0 1-29.59 52.43 26.94 26.94 0 0 1-2.67 1.54c-124.46 70.6-270.8-20.9-278.34-116.75a83.78 83.78 0 0 0 167-3.24c-1.78 52.75 46.6 83.64 87.6 80.69 30-2.16 56-23.98 56-60.87zm-143.51-22.38z" transform="translate(-28.49 -3.27)" style="mix-blend-mode:multiply" fill="url(#x)"/><path d="M450.74 406L285 501.71a61.47 61.47 0 0 1-58.52 0c-.89-.49-1.75-1-2.59-1.5-68.16-39.34-185-176.95-71.26-299.49 49.9-53.74 69.42-89.29 77-113.14a85.05 85.05 0 0 1 26.09 39.62c-11.43 34.09-26.18 50.86-65 100.71A83.18 83.18 0 0 0 172 280.72c0 2.43.12 4.82.32 7.21l.12 1.34c7.5 95.85 153.84 187.35 278.3 116.73z" transform="translate(-28.49 -3.27)" style="mix-blend-mode:multiply" fill="url(#y)"/><path d="M450.74 406L285 501.71a61.47 61.47 0 0 1-58.52 0c-.89-.49-1.75-1-2.59-1.5-68.16-39.34-185-176.95-71.26-299.49 49.9-53.74 69.42-89.29 77-113.14a85.05 85.05 0 0 1 26.09 39.62c-11.43 34.09-26.18 50.86-65 100.71A83.18 83.18 0 0 0 172 280.72c0 2.43.12 4.82.32 7.21l.12 1.34c7.5 95.85 153.84 187.35 278.3 116.73z" transform="translate(-28.49 -3.27)" style="mix-blend-mode:multiply" fill="url(#z)"/><path d="M450.74 406L285 501.71a61.47 61.47 0 0 1-58.52 0c-.89-.49-1.75-1-2.59-1.5-68.16-39.34-185-176.95-71.26-299.49 49.9-53.74 69.42-89.29 77-113.14a85.05 85.05 0 0 1 26.09 39.62c-11.43 34.09-26.18 50.86-65 100.71A83.18 83.18 0 0 0 172 280.72c0 2.43.12 4.82.32 7.21l.12 1.34c7.5 95.85 153.84 187.35 278.3 116.73z" transform="translate(-28.49 -3.27)" style="mix-blend-mode:multiply" fill="url(#A)"/><path d="M450.74 406L285 501.71a61.47 61.47 0 0 1-58.52 0c-.89-.49-1.75-1-2.59-1.5-68.16-39.34-185-176.95-71.26-299.49 49.9-53.74 69.42-89.29 77-113.14a85.05 85.05 0 0 1 26.09 39.62c-11.43 34.09-26.18 50.86-65 100.71A83.18 83.18 0 0 0 172 280.72c0 2.43.12 4.82.32 7.21l.12 1.34c7.5 95.85 153.84 187.35 278.3 116.73z" transform="translate(-28.49 -3.27)" style="mix-blend-mode:multiply" fill="url(#B)"/><path d="M450.74 406L285 501.71a61.47 61.47 0 0 1-58.52 0c-.89-.49-1.75-1-2.59-1.5-68.16-39.34-185-176.95-71.26-299.49 49.9-53.74 69.42-89.29 77-113.14a85.05 85.05 0 0 1 26.09 39.62c-11.43 34.09-26.18 50.86-65 100.71A83.18 83.18 0 0 0 172 280.72c0 2.43.12 4.82.32 7.21l.12 1.34c7.5 95.85 153.84 187.35 278.3 116.73z" transform="translate(-28.49 -3.27)" style="mix-blend-mode:multiply" fill="url(#C)"/><path d="M450.74 406L285 501.71a61.47 61.47 0 0 1-58.52 0c-.89-.49-1.75-1-2.59-1.5-68.16-39.34-185-176.95-71.26-299.49 49.9-53.74 69.42-89.29 77-113.14a85.05 85.05 0 0 1 26.09 39.62c-11.43 34.09-26.18 50.86-65 100.71A83.18 83.18 0 0 0 172 280.72c0 2.43.12 4.82.32 7.21l.12 1.34c7.5 95.85 153.84 187.35 278.3 116.73z" transform="translate(-28.49 -3.27)" style="mix-blend-mode:multiply" fill="url(#D)"/><path d="M255.77 3.27A60.64 60.64 0 0 1 284 10.16c62.4 36 123.9 186.87 104 292.62-12 63.78-62.82 109.12-134.19 99.75-45.75-27-77.91-69.66-81.34-113.26a83.78 83.78 0 1 0 148-61.8h.05c-38.59-49.49-53.29-66.27-64.68-100.23-7.22-23-22.7-40.69-44.83-52.16-26.74-13.89-66.13-17.1-102.73 4.06l114.54-66.26 4.7-2.72a60.75 60.75 0 0 1 28.25-6.89z" transform="translate(-28.49 -3.27)" style="mix-blend-mode:multiply" fill="url(#E)"/><path d="M255.77 3.27A60.64 60.64 0 0 1 284 10.16c62.4 36 123.9 186.87 104 292.62-12 63.78-62.82 109.12-134.19 99.75-45.75-27-77.91-69.66-81.34-113.26a83.78 83.78 0 1 0 148-61.8h.05c-38.59-49.49-53.29-66.27-64.68-100.23-7.22-23-22.7-40.69-44.83-52.16-26.74-13.89-66.13-17.1-102.73 4.06l114.54-66.26 4.7-2.72a60.75 60.75 0 0 1 28.25-6.89z" transform="translate(-28.49 -3.27)" style="mix-blend-mode:multiply" fill="url(#F)"/><path d="M255.77 3.27A60.64 60.64 0 0 1 284 10.16c62.4 36 123.9 186.87 104 292.62-12 63.78-62.82 109.12-134.19 99.75-45.75-27-77.91-69.66-81.34-113.26a83.78 83.78 0 1 0 148-61.8h.05c-38.59-49.49-53.29-66.27-64.68-100.23-7.22-23-22.7-40.69-44.83-52.16-26.74-13.89-66.13-17.1-102.73 4.06l114.54-66.26 4.7-2.72a60.75 60.75 0 0 1 28.25-6.89z" transform="translate(-28.49 -3.27)" style="mix-blend-mode:multiply" fill="url(#G)"/><path d="M255.77 3.27A60.64 60.64 0 0 1 284 10.16c62.4 36 123.9 186.87 104 292.62-12 63.78-62.82 109.12-134.19 99.75-45.75-27-77.91-69.66-81.34-113.26a83.78 83.78 0 1 0 148-61.8h.05c-38.59-49.49-53.29-66.27-64.68-100.23-7.22-23-22.7-40.69-44.83-52.16-26.74-13.89-66.13-17.1-102.73 4.06l114.54-66.26 4.7-2.72a60.75 60.75 0 0 1 28.25-6.89z" transform="translate(-28.49 -3.27)" style="mix-blend-mode:multiply" fill="url(#H)"/><path d="M255.77 3.27A60.64 60.64 0 0 1 284 10.16c62.4 36 123.9 186.87 104 292.62-12 63.78-62.82 109.12-134.19 99.75-45.75-27-77.91-69.66-81.34-113.26a83.78 83.78 0 1 0 148-61.8h.05c-38.59-49.49-53.29-66.27-64.68-100.23-7.22-23-22.7-40.69-44.83-52.16-26.74-13.89-66.13-17.1-102.73 4.06l114.54-66.26 4.7-2.72a60.75 60.75 0 0 1 28.25-6.89z" transform="translate(-28.49 -3.27)" style="mix-blend-mode:multiply" fill="url(#I)"/><path d="M387.93 302.78c-12 63.78-62.82 109.12-134.19 99.75a200.47 200.47 0 0 1-30.65-22.16c19.78 9.61 34.11 12.09 34.11 12.09a131.44 131.44 0 0 0 14.94.88c26.93 0 51.11-9 69.91-26 18.23-16.49 30.55-39.48 35.65-66.5 8.88-47.11 1.36-108-20.63-166.89C339.14 85.9 313.81 46.13 289 26.27a.27.27 0 0 0-.08-.07 83.33 83.33 0 0 0-8.8-6.2A84.63 84.63 0 0 0 233.7 7.36a61.34 61.34 0 0 1 50.3 2.8c62.37 36 123.87 186.84 103.93 292.62z" transform="translate(-28.49 -3.27)" style="mix-blend-mode:multiply" fill="url(#J)"/><path d="M271.2 507.17a61.84 61.84 0 0 1-15.43 1.95 60.79 60.79 0 0 1-29.26-7.41c-.89-.49-1.75-1-2.59-1.5-68.16-39.34-185-176.95-71.26-299.49 49.9-53.74 69.42-89.29 77-113.14a88.23 88.23 0 0 1 8.85 8.76 114.12 114.12 0 0 1-5 10.29c-12.84 28.86-36.95 62.15-73.18 101.18-35.57 38.32-50.12 80.94-43.23 126.68 6.07 40.28 27.56 74.41 44.51 95.95 19.65 25 44.9 47.68 67.54 60.75l.15.08.15.09c.31.2.65.4 1 .61a128.82 128.82 0 0 0 40.75 15.2z" transform="translate(-28.49 -3.27)" style="mix-blend-mode:multiply" fill="url(#K)"/><path d="M271.2 507.17a61.84 61.84 0 0 1-15.43 1.95 60.79 60.79 0 0 1-29.26-7.41c-.89-.49-1.75-1-2.59-1.5-68.16-39.34-185-176.95-71.26-299.49 49.9-53.74 69.42-89.29 77-113.14a88.23 88.23 0 0 1 8.85 8.76 114.12 114.12 0 0 1-5 10.29c-12.84 28.86-36.95 62.15-73.18 101.18-35.57 38.32-50.12 80.94-43.23 126.68 6.07 40.28 27.56 74.41 44.51 95.95 19.65 25 44.9 47.68 67.54 60.75l.15.08.15.09c.31.2.65.4 1 .61a128.82 128.82 0 0 0 40.75 15.2z" transform="translate(-28.49 -3.27)" style="mix-blend-mode:multiply" fill="url(#L)"/><path d="M453.41 404.48a26.94 26.94 0 0 1-2.67 1.54c-124.46 70.6-270.8-20.9-278.34-116.75a83.8 83.8 0 0 0 121.48 66.09c48.25 85.09 133.3 64.27 159.53 49.12z" transform="translate(-28.49 -3.27)" style="mix-blend-mode:multiply" fill="url(#M)"/><path d="M453.41 404.48a26.94 26.94 0 0 1-2.67 1.54c-124.46 70.6-270.8-20.9-278.34-116.75a83.8 83.8 0 0 0 121.48 66.09c48.25 85.09 133.3 64.27 159.53 49.12z" transform="translate(-28.49 -3.27)" style="mix-blend-mode:multiply" fill="url(#N)"/><path d="M108.17 79.1c36.6-21.16 76-17.95 102.73-4.06 22.13 11.47 37.61 29.18 44.83 52.16-9.84 29.34-22.14 45.86-50.16 81.68 21.87-103.28-60.1-151.31-115-119.62z" transform="translate(-28.49 -3.27)" style="mix-blend-mode:multiply" fill="url(#O)"/><path d="M439.81 400.11a177.49 177.49 0 0 1-83.1 20.52 189.4 189.4 0 0 1-64.29-11.4A195.24 195.24 0 0 1 237.73 379q-5.07-4-9.74-8.23a86.93 86.93 0 0 1-15.94-18.54 83.74 83.74 0 0 1-39.65-63c7.54 95.89 153.88 187.39 278.34 116.77a26.94 26.94 0 0 0 2.67-1.54 61.33 61.33 0 0 0 26.66-33.67 152.05 152.05 0 0 1-40.26 29.32z" transform="translate(-28.49 -3.27)" style="mix-blend-mode:multiply" fill="url(#P)"/><path d="M439.81 400.11a177.49 177.49 0 0 1-83.1 20.52 189.4 189.4 0 0 1-64.29-11.4A195.24 195.24 0 0 1 237.73 379q-5.07-4-9.74-8.23a86.93 86.93 0 0 1-15.94-18.54 83.74 83.74 0 0 1-39.65-63c7.54 95.89 153.88 187.39 278.34 116.77a26.94 26.94 0 0 0 2.67-1.54 61.33 61.33 0 0 0 26.66-33.67 152.05 152.05 0 0 1-40.26 29.32z" transform="translate(-28.49 -3.27)" style="mix-blend-mode:multiply" fill="url(#Q)"/><path d="M167.66 74.43q3.32.12 6.59.47h.5A92.42 92.42 0 0 1 188 77.4h.07a86 86 0 0 1 18 6.87c18.93 9.84 31.93 24.25 38.65 42.89a73.35 73.35 0 0 1 3.06 19.94 178.12 178.12 0 0 0 7.95-19.9c-7.22-23-22.7-40.69-44.83-52.16-26.74-13.89-66.13-17.1-102.73 4.06l-.85.49c13.82-3.27 36.1-7.04 60.34-5.16z" transform="translate(-28.49 -3.27)" style="mix-blend-mode:multiply" fill="url(#R)"/><path d="M167.66 74.43q3.32.12 6.59.47h.5A92.42 92.42 0 0 1 188 77.4h.07a86 86 0 0 1 18 6.87c18.93 9.84 31.93 24.25 38.65 42.89a73.35 73.35 0 0 1 3.06 19.94 178.12 178.12 0 0 0 7.95-19.9c-7.22-23-22.7-40.69-44.83-52.16-26.74-13.89-66.13-17.1-102.73 4.06l-.85.49c13.82-3.27 36.1-7.04 60.34-5.16z" transform="translate(-28.49 -3.27)" style="mix-blend-mode:multiply" fill="url(#S)"/><g opacity=".4"><path d="M483 160.4v191.65a61.14 61.14 0 0 1-29.59 52.43 26.94 26.94 0 0 1-2.67 1.54c-124.46 70.6-270.8-20.9-278.34-116.75a83.78 83.78 0 1 0 148-61.8h.05c-38.59-49.49-53.29-66.27-64.68-100.23-7.22-23-22.7-40.69-44.83-52.16-26.74-13.89-66.13-17.1-102.73 4.06l114.61-66.26 4.7-2.72a61.26 61.26 0 0 1 56.45 0l4.54 2.59 161.09 93 5 2.92A61.29 61.29 0 0 1 483 160.4z" transform="translate(-28.49 -3.27)" style="mix-blend-mode:multiply" fill="url(#a)"/><path d="M483 160.4v191.65a61.14 61.14 0 0 1-29.59 52.43 26.94 26.94 0 0 1-2.67 1.54c-124.46 70.6-270.8-20.9-278.34-116.75a83.78 83.78 0 1 0 148-61.8h.05c-38.59-49.49-53.29-66.27-64.68-100.23-7.22-23-22.7-40.69-44.83-52.16-26.74-13.89-66.13-17.1-102.73 4.06l114.61-66.26 4.7-2.72a61.26 61.26 0 0 1 56.45 0l4.54 2.59 161.09 93 5 2.92A61.29 61.29 0 0 1 483 160.4z" transform="translate(-28.49 -3.27)" style="mix-blend-mode:multiply" fill="url(#b)"/><path d="M483 160.4v191.65a61.14 61.14 0 0 1-29.59 52.43 26.94 26.94 0 0 1-2.67 1.54c-124.46 70.6-270.8-20.9-278.34-116.75a83.78 83.78 0 1 0 148-61.8h.05c-38.59-49.49-53.29-66.27-64.68-100.23-7.22-23-22.7-40.69-44.83-52.16-26.74-13.89-66.13-17.1-102.73 4.06l114.61-66.26 4.7-2.72a61.26 61.26 0 0 1 56.45 0l4.54 2.59 161.09 93 5 2.92A61.29 61.29 0 0 1 483 160.4z" transform="translate(-28.49 -3.27)" style="mix-blend-mode:multiply" fill="url(#c)"/><path d="M483 160.4v191.65a61.14 61.14 0 0 1-29.59 52.43 26.94 26.94 0 0 1-2.67 1.54c-124.46 70.6-270.8-20.9-278.34-116.75a83.78 83.78 0 1 0 148-61.8h.05c-38.59-49.49-53.29-66.27-64.68-100.23-7.22-23-22.7-40.69-44.83-52.16-26.74-13.89-66.13-17.1-102.73 4.06l114.61-66.26 4.7-2.72a61.26 61.26 0 0 1 56.45 0l4.54 2.59 161.09 93 5 2.92A61.29 61.29 0 0 1 483 160.4z" transform="translate(-28.49 -3.27)" style="mix-blend-mode:multiply" fill="url(#d)"/><path d="M483 160.4v191.65a61.14 61.14 0 0 1-29.59 52.43 26.94 26.94 0 0 1-2.67 1.54c-124.46 70.6-270.8-20.9-278.34-116.75a83.78 83.78 0 1 0 148-61.8h.05c-38.59-49.49-53.29-66.27-64.68-100.23-7.22-23-22.7-40.69-44.83-52.16-26.74-13.89-66.13-17.1-102.73 4.06l114.61-66.26 4.7-2.72a61.26 61.26 0 0 1 56.45 0l4.54 2.59 161.09 93 5 2.92A61.29 61.29 0 0 1 483 160.4z" transform="translate(-28.49 -3.27)" style="mix-blend-mode:multiply" fill="url(#e)"/><path d="M483 160.4v191.65a61.14 61.14 0 0 1-29.59 52.43 26.94 26.94 0 0 1-2.67 1.54c-124.46 70.6-270.8-20.9-278.34-116.75a83.78 83.78 0 1 0 148-61.8h.05c-38.59-49.49-53.29-66.27-64.68-100.23-7.22-23-22.7-40.69-44.83-52.16-26.74-13.89-66.13-17.1-102.73 4.06l114.61-66.26 4.7-2.72a61.26 61.26 0 0 1 56.45 0l4.54 2.59 161.09 93 5 2.92A61.29 61.29 0 0 1 483 160.4z" transform="translate(-28.49 -3.27)" style="mix-blend-mode:multiply" fill="url(#f)"/><path d="M483 160.4v191.65a61.14 61.14 0 0 1-29.59 52.43 26.94 26.94 0 0 1-2.67 1.54c-124.46 70.6-270.8-20.9-278.34-116.75a83.78 83.78 0 1 0 148-61.8h.05c-38.59-49.49-53.29-66.27-64.68-100.23-7.22-23-22.7-40.69-44.83-52.16-26.74-13.89-66.13-17.1-102.73 4.06l114.61-66.26 4.7-2.72a61.26 61.26 0 0 1 56.45 0l4.54 2.59 161.09 93 5 2.92A61.29 61.29 0 0 1 483 160.4z" transform="translate(-28.49 -3.27)" style="mix-blend-mode:multiply" fill="url(#g)"/><path d="M483 160.4v191.65a61.14 61.14 0 0 1-29.59 52.43 26.94 26.94 0 0 1-2.67 1.54c-124.46 70.6-270.8-20.9-278.34-116.75a83.78 83.78 0 1 0 148-61.8h.05c-38.59-49.49-53.29-66.27-64.68-100.23-7.22-23-22.7-40.69-44.83-52.16-26.74-13.89-66.13-17.1-102.73 4.06l114.61-66.26 4.7-2.72a61.26 61.26 0 0 1 56.45 0l4.54 2.59 161.09 93 5 2.92A61.29 61.29 0 0 1 483 160.4z" transform="translate(-28.49 -3.27)" style="mix-blend-mode:multiply" fill="url(#h)"/><path d="M483 160.4v191.65a61.14 61.14 0 0 1-29.59 52.43 26.94 26.94 0 0 1-2.67 1.54c-124.46 70.6-270.8-20.9-278.34-116.75a83.78 83.78 0 1 0 148-61.8h.05c-38.59-49.49-53.29-66.27-64.68-100.23-7.22-23-22.7-40.69-44.83-52.16-26.74-13.89-66.13-17.1-102.73 4.06l114.61-66.26 4.7-2.72a61.26 61.26 0 0 1 56.45 0l4.54 2.59 161.09 93 5 2.92A61.29 61.29 0 0 1 483 160.4z" transform="translate(-28.49 -3.27)" style="mix-blend-mode:multiply" fill="url(#i)"/><path d="M450.74 406L285 501.71a61.47 61.47 0 0 1-58.52 0c-.89-.49-1.75-1-2.59-1.5L60.8 406.07c-.94-.49-1.83-1-2.72-1.59a61.16 61.16 0 0 1-29.59-52.43V160.51A61.38 61.38 0 0 1 58.08 108c.81-.48 1.7-1 2.55-1.45l47.54-27.45c36.6-21.16 76-17.95 102.73-4.06 22.13 11.47 37.61 29.18 44.83 52.16-11.43 34.09-26.18 50.86-65 100.71A83.18 83.18 0 0 0 172 280.72c0 2.43.12 4.82.32 7.21l.12 1.34c7.5 95.85 153.84 187.35 278.3 116.73z" transform="translate(-28.49 -3.27)" style="mix-blend-mode:multiply" fill="url(#j)"/><path d="M450.74 406L285 501.71a61.47 61.47 0 0 1-58.52 0c-.89-.49-1.75-1-2.59-1.5L60.8 406.07c-.94-.49-1.83-1-2.72-1.59a61.16 61.16 0 0 1-29.59-52.43V160.51A61.38 61.38 0 0 1 58.08 108c.81-.48 1.7-1 2.55-1.45l47.54-27.45c36.6-21.16 76-17.95 102.73-4.06 22.13 11.47 37.61 29.18 44.83 52.16-11.43 34.09-26.18 50.86-65 100.71A83.18 83.18 0 0 0 172 280.72c0 2.43.12 4.82.32 7.21l.12 1.34c7.5 95.85 153.84 187.35 278.3 116.73z" transform="translate(-28.49 -3.27)" style="mix-blend-mode:multiply" fill="url(#k)"/><path d="M450.74 406L285 501.71a61.47 61.47 0 0 1-58.52 0c-.89-.49-1.75-1-2.59-1.5L60.8 406.07c-.94-.49-1.83-1-2.72-1.59a61.16 61.16 0 0 1-29.59-52.43V160.51A61.38 61.38 0 0 1 58.08 108c.81-.48 1.7-1 2.55-1.45l47.54-27.45c36.6-21.16 76-17.95 102.73-4.06 22.13 11.47 37.61 29.18 44.83 52.16-11.43 34.09-26.18 50.86-65 100.71A83.18 83.18 0 0 0 172 280.72c0 2.43.12 4.82.32 7.21l.12 1.34c7.5 95.85 153.84 187.35 278.3 116.73z" transform="translate(-28.49 -3.27)" style="mix-blend-mode:multiply" fill="url(#l)"/><path d="M450.74 406L285 501.71a61.47 61.47 0 0 1-58.52 0c-.89-.49-1.75-1-2.59-1.5L60.8 406.07c-.94-.49-1.83-1-2.72-1.59a61.16 61.16 0 0 1-29.59-52.43V160.51A61.38 61.38 0 0 1 58.08 108c.81-.48 1.7-1 2.55-1.45l47.54-27.45c36.6-21.16 76-17.95 102.73-4.06 22.13 11.47 37.61 29.18 44.83 52.16-11.43 34.09-26.18 50.86-65 100.71A83.18 83.18 0 0 0 172 280.72c0 2.43.12 4.82.32 7.21l.12 1.34c7.5 95.85 153.84 187.35 278.3 116.73z" transform="translate(-28.49 -3.27)" style="mix-blend-mode:multiply" fill="url(#m)"/><path d="M450.74 406L285 501.71a61.47 61.47 0 0 1-58.52 0c-.89-.49-1.75-1-2.59-1.5L60.8 406.07c-.94-.49-1.83-1-2.72-1.59a61.16 61.16 0 0 1-29.59-52.43V160.51A61.38 61.38 0 0 1 58.08 108c.81-.48 1.7-1 2.55-1.45l47.54-27.45c36.6-21.16 76-17.95 102.73-4.06 22.13 11.47 37.61 29.18 44.83 52.16-11.43 34.09-26.18 50.86-65 100.71A83.18 83.18 0 0 0 172 280.72c0 2.43.12 4.82.32 7.21l.12 1.34c7.5 95.85 153.84 187.35 278.3 116.73z" transform="translate(-28.49 -3.27)" style="mix-blend-mode:multiply" fill="url(#n)"/><path d="M450.74 406L285 501.71a61.47 61.47 0 0 1-58.52 0c-.89-.49-1.75-1-2.59-1.5L60.8 406.07c-.94-.49-1.83-1-2.72-1.59a61.16 61.16 0 0 1-29.59-52.43V160.51A61.38 61.38 0 0 1 58.08 108c.81-.48 1.7-1 2.55-1.45l47.54-27.45c36.6-21.16 76-17.95 102.73-4.06 22.13 11.47 37.61 29.18 44.83 52.16-11.43 34.09-26.18 50.86-65 100.71A83.18 83.18 0 0 0 172 280.72c0 2.43.12 4.82.32 7.21l.12 1.34c7.5 95.85 153.84 187.35 278.3 116.73z" transform="translate(-28.49 -3.27)" style="mix-blend-mode:multiply" fill="url(#o)"/><path d="M450.74 406L285 501.71a61.47 61.47 0 0 1-58.52 0c-.89-.49-1.75-1-2.59-1.5L60.8 406.07c-.94-.49-1.83-1-2.72-1.59a61.16 61.16 0 0 1-29.59-52.43V160.51A61.38 61.38 0 0 1 58.08 108c.81-.48 1.7-1 2.55-1.45l47.54-27.45c36.6-21.16 76-17.95 102.73-4.06 22.13 11.47 37.61 29.18 44.83 52.16-11.43 34.09-26.18 50.86-65 100.71A83.18 83.18 0 0 0 172 280.72c0 2.43.12 4.82.32 7.21l.12 1.34c7.5 95.85 153.84 187.35 278.3 116.73z" transform="translate(-28.49 -3.27)" style="mix-blend-mode:multiply" fill="url(#p)"/><path d="M450.74 406L285 501.71a61.47 61.47 0 0 1-58.52 0c-.89-.49-1.75-1-2.59-1.5L60.8 406.07c-.94-.49-1.83-1-2.72-1.59a61.16 61.16 0 0 1-29.59-52.43V160.51A61.38 61.38 0 0 1 58.08 108c.81-.48 1.7-1 2.55-1.45l47.54-27.45c36.6-21.16 76-17.95 102.73-4.06 22.13 11.47 37.61 29.18 44.83 52.16-11.43 34.09-26.18 50.86-65 100.71A83.18 83.18 0 0 0 172 280.72c0 2.43.12 4.82.32 7.21l.12 1.34c7.5 95.85 153.84 187.35 278.3 116.73z" transform="translate(-28.49 -3.27)" style="mix-blend-mode:multiply" fill="url(#q)"/><path d="M450.74 406L285 501.71a61.47 61.47 0 0 1-58.52 0c-.89-.49-1.75-1-2.59-1.5L60.8 406.07c-.94-.49-1.83-1-2.72-1.59a61.16 61.16 0 0 1-29.59-52.43V160.51A61.38 61.38 0 0 1 58.08 108c.81-.48 1.7-1 2.55-1.45l47.54-27.45c36.6-21.16 76-17.95 102.73-4.06 22.13 11.47 37.61 29.18 44.83 52.16-11.43 34.09-26.18 50.86-65 100.71A83.18 83.18 0 0 0 172 280.72c0 2.43.12 4.82.32 7.21l.12 1.34c7.5 95.85 153.84 187.35 278.3 116.73z" transform="translate(-28.49 -3.27)" style="mix-blend-mode:multiply" fill="url(#r)"/><path d="M450.74 406L285 501.71a61.47 61.47 0 0 1-58.52 0c-.89-.49-1.75-1-2.59-1.5L60.8 406.07c-.94-.49-1.83-1-2.72-1.59a61.16 61.16 0 0 1-29.59-52.43V160.51A61.38 61.38 0 0 1 58.08 108c.81-.48 1.7-1 2.55-1.45l47.54-27.45c36.6-21.16 76-17.95 102.73-4.06 22.13 11.47 37.61 29.18 44.83 52.16-11.43 34.09-26.18 50.86-65 100.71A83.18 83.18 0 0 0 172 280.72c0 2.43.12 4.82.32 7.21l.12 1.34c7.5 95.85 153.84 187.35 278.3 116.73z" transform="translate(-28.49 -3.27)" style="mix-blend-mode:multiply" fill="url(#s)"/><path d="M450.74 406L285 501.71a61.47 61.47 0 0 1-58.52 0c-.89-.49-1.75-1-2.59-1.5L60.8 406.07c-.94-.49-1.83-1-2.72-1.59a61.16 61.16 0 0 1-29.59-52.43V160.51A61.38 61.38 0 0 1 58.08 108c.81-.48 1.7-1 2.55-1.45l47.54-27.45c36.6-21.16 76-17.95 102.73-4.06 22.13 11.47 37.61 29.18 44.83 52.16-11.43 34.09-26.18 50.86-65 100.71A83.18 83.18 0 0 0 172 280.72c0 2.43.12 4.82.32 7.21l.12 1.34c7.5 95.85 153.84 187.35 278.3 116.73z" transform="translate(-28.49 -3.27)" style="mix-blend-mode:multiply" fill="url(#t)"/><path d="M28.49 195.05v-34.54A61.38 61.38 0 0 1 58.08 108c.81-.48 1.7-1 2.55-1.45l47.54-27.45c36.6-21.16 76-17.95 102.73-4.06 22.13 11.47 37.61 29.18 44.83 52.16-11.43 34.09-26.18 50.86-65 100.71a83.69 83.69 0 0 0-8.29 12.23c26.12-46.51-6.89-97.72-61.74-107-48.04-8-92.21 19.47-92.21 61.91z" transform="translate(-28.49 -3.27)" style="mix-blend-mode:multiply" fill="url(#u)"/><path d="M28.49 195.05v-34.54A61.38 61.38 0 0 1 58.08 108c.81-.48 1.7-1 2.55-1.45l47.54-27.45c36.6-21.16 76-17.95 102.73-4.06 22.13 11.47 37.61 29.18 44.83 52.16-11.43 34.09-26.18 50.86-65 100.71a83.69 83.69 0 0 0-8.29 12.23c26.12-46.51-6.89-97.72-61.74-107-48.04-8-92.21 19.47-92.21 61.91z" transform="translate(-28.49 -3.27)" style="mix-blend-mode:multiply" fill="url(#v)"/><path d="M483 305.85v46.2a61.14 61.14 0 0 1-29.59 52.43 26.94 26.94 0 0 1-2.67 1.54c-124.46 70.6-270.8-20.9-278.34-116.75a83.78 83.78 0 0 0 167-3.24c-1.78 52.75 46.6 83.64 87.6 80.69 30-2.16 56-23.98 56-60.87zm-143.51-22.38z" transform="translate(-28.49 -3.27)" style="mix-blend-mode:multiply" fill="url(#w)"/><path d="M483 305.85v46.2a61.14 61.14 0 0 1-29.59 52.43 26.94 26.94 0 0 1-2.67 1.54c-124.46 70.6-270.8-20.9-278.34-116.75a83.78 83.78 0 0 0 167-3.24c-1.78 52.75 46.6 83.64 87.6 80.69 30-2.16 56-23.98 56-60.87zm-143.51-22.38z" transform="translate(-28.49 -3.27)" style="mix-blend-mode:multiply" fill="url(#x)"/><path d="M450.74 406L285 501.71a61.47 61.47 0 0 1-58.52 0c-.89-.49-1.75-1-2.59-1.5-68.16-39.34-185-176.95-71.26-299.49 49.9-53.74 69.42-89.29 77-113.14a85.05 85.05 0 0 1 26.09 39.62c-11.43 34.09-26.18 50.86-65 100.71A83.18 83.18 0 0 0 172 280.72c0 2.43.12 4.82.32 7.21l.12 1.34c7.5 95.85 153.84 187.35 278.3 116.73z" transform="translate(-28.49 -3.27)" style="mix-blend-mode:multiply" fill="url(#y)"/><path d="M450.74 406L285 501.71a61.47 61.47 0 0 1-58.52 0c-.89-.49-1.75-1-2.59-1.5-68.16-39.34-185-176.95-71.26-299.49 49.9-53.74 69.42-89.29 77-113.14a85.05 85.05 0 0 1 26.09 39.62c-11.43 34.09-26.18 50.86-65 100.71A83.18 83.18 0 0 0 172 280.72c0 2.43.12 4.82.32 7.21l.12 1.34c7.5 95.85 153.84 187.35 278.3 116.73z" transform="translate(-28.49 -3.27)" style="mix-blend-mode:multiply" fill="url(#z)"/><path d="M450.74 406L285 501.71a61.47 61.47 0 0 1-58.52 0c-.89-.49-1.75-1-2.59-1.5-68.16-39.34-185-176.95-71.26-299.49 49.9-53.74 69.42-89.29 77-113.14a85.05 85.05 0 0 1 26.09 39.62c-11.43 34.09-26.18 50.86-65 100.71A83.18 83.18 0 0 0 172 280.72c0 2.43.12 4.82.32 7.21l.12 1.34c7.5 95.85 153.84 187.35 278.3 116.73z" transform="translate(-28.49 -3.27)" style="mix-blend-mode:multiply" fill="url(#A)"/><path d="M450.74 406L285 501.71a61.47 61.47 0 0 1-58.52 0c-.89-.49-1.75-1-2.59-1.5-68.16-39.34-185-176.95-71.26-299.49 49.9-53.74 69.42-89.29 77-113.14a85.05 85.05 0 0 1 26.09 39.62c-11.43 34.09-26.18 50.86-65 100.71A83.18 83.18 0 0 0 172 280.72c0 2.43.12 4.82.32 7.21l.12 1.34c7.5 95.85 153.84 187.35 278.3 116.73z" transform="translate(-28.49 -3.27)" style="mix-blend-mode:multiply" fill="url(#B)"/><path d="M450.74 406L285 501.71a61.47 61.47 0 0 1-58.52 0c-.89-.49-1.75-1-2.59-1.5-68.16-39.34-185-176.95-71.26-299.49 49.9-53.74 69.42-89.29 77-113.14a85.05 85.05 0 0 1 26.09 39.62c-11.43 34.09-26.18 50.86-65 100.71A83.18 83.18 0 0 0 172 280.72c0 2.43.12 4.82.32 7.21l.12 1.34c7.5 95.85 153.84 187.35 278.3 116.73z" transform="translate(-28.49 -3.27)" style="mix-blend-mode:multiply" fill="url(#C)"/><path d="M450.74 406L285 501.71a61.47 61.47 0 0 1-58.52 0c-.89-.49-1.75-1-2.59-1.5-68.16-39.34-185-176.95-71.26-299.49 49.9-53.74 69.42-89.29 77-113.14a85.05 85.05 0 0 1 26.09 39.62c-11.43 34.09-26.18 50.86-65 100.71A83.18 83.18 0 0 0 172 280.72c0 2.43.12 4.82.32 7.21l.12 1.34c7.5 95.85 153.84 187.35 278.3 116.73z" transform="translate(-28.49 -3.27)" style="mix-blend-mode:multiply" fill="url(#D)"/><path d="M255.77 3.27A60.64 60.64 0 0 1 284 10.16c62.4 36 123.9 186.87 104 292.62-12 63.78-62.82 109.12-134.19 99.75-45.75-27-77.91-69.66-81.34-113.26a83.78 83.78 0 1 0 148-61.8h.05c-38.59-49.49-53.29-66.27-64.68-100.23-7.22-23-22.7-40.69-44.83-52.16-26.74-13.89-66.13-17.1-102.73 4.06l114.54-66.26 4.7-2.72a60.75 60.75 0 0 1 28.25-6.89z" transform="translate(-28.49 -3.27)" style="mix-blend-mode:multiply" fill="url(#E)"/><path d="M255.77 3.27A60.64 60.64 0 0 1 284 10.16c62.4 36 123.9 186.87 104 292.62-12 63.78-62.82 109.12-134.19 99.75-45.75-27-77.91-69.66-81.34-113.26a83.78 83.78 0 1 0 148-61.8h.05c-38.59-49.49-53.29-66.27-64.68-100.23-7.22-23-22.7-40.69-44.83-52.16-26.74-13.89-66.13-17.1-102.73 4.06l114.54-66.26 4.7-2.72a60.75 60.75 0 0 1 28.25-6.89z" transform="translate(-28.49 -3.27)" style="mix-blend-mode:multiply" fill="url(#F)"/><path d="M255.77 3.27A60.64 60.64 0 0 1 284 10.16c62.4 36 123.9 186.87 104 292.62-12 63.78-62.82 109.12-134.19 99.75-45.75-27-77.91-69.66-81.34-113.26a83.78 83.78 0 1 0 148-61.8h.05c-38.59-49.49-53.29-66.27-64.68-100.23-7.22-23-22.7-40.69-44.83-52.16-26.74-13.89-66.13-17.1-102.73 4.06l114.54-66.26 4.7-2.72a60.75 60.75 0 0 1 28.25-6.89z" transform="translate(-28.49 -3.27)" style="mix-blend-mode:multiply" fill="url(#G)"/><path d="M255.77 3.27A60.64 60.64 0 0 1 284 10.16c62.4 36 123.9 186.87 104 292.62-12 63.78-62.82 109.12-134.19 99.75-45.75-27-77.91-69.66-81.34-113.26a83.78 83.78 0 1 0 148-61.8h.05c-38.59-49.49-53.29-66.27-64.68-100.23-7.22-23-22.7-40.69-44.83-52.16-26.74-13.89-66.13-17.1-102.73 4.06l114.54-66.26 4.7-2.72a60.75 60.75 0 0 1 28.25-6.89z" transform="translate(-28.49 -3.27)" style="mix-blend-mode:multiply" fill="url(#H)"/><path d="M255.77 3.27A60.64 60.64 0 0 1 284 10.16c62.4 36 123.9 186.87 104 292.62-12 63.78-62.82 109.12-134.19 99.75-45.75-27-77.91-69.66-81.34-113.26a83.78 83.78 0 1 0 148-61.8h.05c-38.59-49.49-53.29-66.27-64.68-100.23-7.22-23-22.7-40.69-44.83-52.16-26.74-13.89-66.13-17.1-102.73 4.06l114.54-66.26 4.7-2.72a60.75 60.75 0 0 1 28.25-6.89z" transform="translate(-28.49 -3.27)" style="mix-blend-mode:multiply" fill="url(#I)"/><path d="M387.93 302.78c-12 63.78-62.82 109.12-134.19 99.75a200.47 200.47 0 0 1-30.65-22.16c19.78 9.61 34.11 12.09 34.11 12.09a131.44 131.44 0 0 0 14.94.88c26.93 0 51.11-9 69.91-26 18.23-16.49 30.55-39.48 35.65-66.5 8.88-47.11 1.36-108-20.63-166.89C339.14 85.9 313.81 46.13 289 26.27a.27.27 0 0 0-.08-.07 83.33 83.33 0 0 0-8.8-6.2A84.63 84.63 0 0 0 233.7 7.36a61.34 61.34 0 0 1 50.3 2.8c62.37 36 123.87 186.84 103.93 292.62z" transform="translate(-28.49 -3.27)" style="mix-blend-mode:multiply" fill="url(#J)"/><path d="M271.2 507.17a61.84 61.84 0 0 1-15.43 1.95 60.79 60.79 0 0 1-29.26-7.41c-.89-.49-1.75-1-2.59-1.5-68.16-39.34-185-176.95-71.26-299.49 49.9-53.74 69.42-89.29 77-113.14a88.23 88.23 0 0 1 8.85 8.76 114.12 114.12 0 0 1-5 10.29c-12.84 28.86-36.95 62.15-73.18 101.18-35.57 38.32-50.12 80.94-43.23 126.68 6.07 40.28 27.56 74.41 44.51 95.95 19.65 25 44.9 47.68 67.54 60.75l.15.08.15.09c.31.2.65.4 1 .61a128.82 128.82 0 0 0 40.75 15.2z" transform="translate(-28.49 -3.27)" style="mix-blend-mode:multiply" fill="url(#K)"/><path d="M271.2 507.17a61.84 61.84 0 0 1-15.43 1.95 60.79 60.79 0 0 1-29.26-7.41c-.89-.49-1.75-1-2.59-1.5-68.16-39.34-185-176.95-71.26-299.49 49.9-53.74 69.42-89.29 77-113.14a88.23 88.23 0 0 1 8.85 8.76 114.12 114.12 0 0 1-5 10.29c-12.84 28.86-36.95 62.15-73.18 101.18-35.57 38.32-50.12 80.94-43.23 126.68 6.07 40.28 27.56 74.41 44.51 95.95 19.65 25 44.9 47.68 67.54 60.75l.15.08.15.09c.31.2.65.4 1 .61a128.82 128.82 0 0 0 40.75 15.2z" transform="translate(-28.49 -3.27)" style="mix-blend-mode:multiply" fill="url(#L)"/><path d="M453.41 404.48a26.94 26.94 0 0 1-2.67 1.54c-124.46 70.6-270.8-20.9-278.34-116.75a83.8 83.8 0 0 0 121.48 66.09c48.25 85.09 133.3 64.27 159.53 49.12z" transform="translate(-28.49 -3.27)" style="mix-blend-mode:multiply" fill="url(#M)"/><path d="M453.41 404.48a26.94 26.94 0 0 1-2.67 1.54c-124.46 70.6-270.8-20.9-278.34-116.75a83.8 83.8 0 0 0 121.48 66.09c48.25 85.09 133.3 64.27 159.53 49.12z" transform="translate(-28.49 -3.27)" style="mix-blend-mode:multiply" fill="url(#N)"/><path d="M108.17 79.1c36.6-21.16 76-17.95 102.73-4.06 22.13 11.47 37.61 29.18 44.83 52.16-9.84 29.34-22.14 45.86-50.16 81.68 21.87-103.28-60.1-151.31-115-119.62z" transform="translate(-28.49 -3.27)" style="mix-blend-mode:multiply" fill="url(#O)"/><path d="M439.81 400.11a177.49 177.49 0 0 1-83.1 20.52 189.4 189.4 0 0 1-64.29-11.4A195.24 195.24 0 0 1 237.73 379q-5.07-4-9.74-8.23a86.93 86.93 0 0 1-15.94-18.54 83.74 83.74 0 0 1-39.65-63c7.54 95.89 153.88 187.39 278.34 116.77a26.94 26.94 0 0 0 2.67-1.54 61.33 61.33 0 0 0 26.66-33.67 152.05 152.05 0 0 1-40.26 29.32z" transform="translate(-28.49 -3.27)" style="mix-blend-mode:multiply" fill="url(#P)"/><path d="M439.81 400.11a177.49 177.49 0 0 1-83.1 20.52 189.4 189.4 0 0 1-64.29-11.4A195.24 195.24 0 0 1 237.73 379q-5.07-4-9.74-8.23a86.93 86.93 0 0 1-15.94-18.54 83.74 83.74 0 0 1-39.65-63c7.54 95.89 153.88 187.39 278.34 116.77a26.94 26.94 0 0 0 2.67-1.54 61.33 61.33 0 0 0 26.66-33.67 152.05 152.05 0 0 1-40.26 29.32z" transform="translate(-28.49 -3.27)" style="mix-blend-mode:multiply" fill="url(#Q)"/><path d="M167.66 74.43q3.32.12 6.59.47h.5A92.42 92.42 0 0 1 188 77.4h.07a86 86 0 0 1 18 6.87c18.93 9.84 31.93 24.25 38.65 42.89a73.35 73.35 0 0 1 3.06 19.94 178.12 178.12 0 0 0 7.95-19.9c-7.22-23-22.7-40.69-44.83-52.16-26.74-13.89-66.13-17.1-102.73 4.06l-.85.49c13.82-3.27 36.1-7.04 60.34-5.16z" transform="translate(-28.49 -3.27)" style="mix-blend-mode:multiply" fill="url(#R)"/><path d="M167.66 74.43q3.32.12 6.59.47h.5A92.42 92.42 0 0 1 188 77.4h.07a86 86 0 0 1 18 6.87c18.93 9.84 31.93 24.25 38.65 42.89a73.35 73.35 0 0 1 3.06 19.94 178.12 178.12 0 0 0 7.95-19.9c-7.22-23-22.7-40.69-44.83-52.16-26.74-13.89-66.13-17.1-102.73 4.06l-.85.49c13.82-3.27 36.1-7.04 60.34-5.16z" transform="translate(-28.49 -3.27)" style="mix-blend-mode:multiply" fill="url(#S)"/></g></g></svg>
