<svg xmlns="http://www.w3.org/2000/svg" xmlns:xlink="http://www.w3.org/1999/xlink" viewBox="0 0 365.43 114.09"><defs><style>.cls-10,.cls-11,.cls-12,.cls-13,.cls-14,.cls-15,.cls-16,.cls-17,.cls-18,.cls-19,.cls-20,.cls-21,.cls-22,.cls-23,.cls-24,.cls-25,.cls-26,.cls-27,.cls-28,.cls-29,.cls-3,.cls-30,.cls-31,.cls-32,.cls-33,.cls-34,.cls-35,.cls-36,.cls-37,.cls-38,.cls-39,.cls-4,.cls-40,.cls-41,.cls-42,.cls-43,.cls-44,.cls-45,.cls-46,.cls-47,.cls-5,.cls-6,.cls-7,.cls-8,.cls-9{mix-blend-mode:multiply}.cls-3{fill:url(#linear-gradient)}.cls-4{fill:url(#linear-gradient-2)}.cls-5{fill:url(#linear-gradient-3)}.cls-6{fill:url(#linear-gradient-4)}.cls-7{fill:url(#linear-gradient-5)}.cls-8{fill:url(#linear-gradient-6)}.cls-9{fill:url(#linear-gradient-7)}.cls-10{fill:url(#linear-gradient-8)}.cls-11{fill:url(#linear-gradient-9)}.cls-12{fill:url(#linear-gradient-10)}.cls-13{fill:url(#linear-gradient-11)}.cls-14{fill:url(#linear-gradient-12)}.cls-15{fill:url(#linear-gradient-13)}.cls-16{fill:url(#linear-gradient-14)}.cls-17{fill:url(#linear-gradient-15)}.cls-18{fill:url(#linear-gradient-16)}.cls-19{fill:url(#linear-gradient-17)}.cls-20{fill:url(#linear-gradient-18)}.cls-21{fill:url(#linear-gradient-19)}.cls-22{fill:url(#radial-gradient)}.cls-23{fill:url(#linear-gradient-20)}.cls-24{fill:url(#linear-gradient-21)}.cls-25{fill:url(#linear-gradient-22)}.cls-26{fill:url(#linear-gradient-23)}.cls-27{fill:url(#linear-gradient-24)}.cls-28{fill:url(#linear-gradient-25)}.cls-29{fill:url(#linear-gradient-26)}.cls-30{fill:url(#linear-gradient-27)}.cls-31{fill:url(#linear-gradient-28)}.cls-32{fill:url(#linear-gradient-29)}.cls-33{fill:url(#linear-gradient-30)}.cls-34{fill:url(#linear-gradient-31)}.cls-35{fill:url(#linear-gradient-32)}.cls-36{fill:url(#linear-gradient-33)}.cls-37{fill:url(#linear-gradient-34)}.cls-38{fill:url(#linear-gradient-35)}.cls-39{fill:url(#linear-gradient-36)}.cls-40{fill:url(#linear-gradient-37)}.cls-41{fill:url(#linear-gradient-38)}.cls-42{fill:url(#linear-gradient-39)}.cls-43{fill:url(#linear-gradient-40)}.cls-44{fill:url(#linear-gradient-41)}.cls-45{fill:url(#linear-gradient-42)}.cls-46{fill:url(#linear-gradient-43)}.cls-47{fill:url(#linear-gradient-44)}</style><linearGradient id="linear-gradient" x1="-38.52" y1="134.38" x2="105.77" y2="33.41" gradientUnits="userSpaceOnUse"><stop offset="0" stop-color="#a00a94"/><stop offset="1" stop-color="#adc9ff" stop-opacity="0"/></linearGradient><linearGradient id="linear-gradient-2" x1="331.62" y1="126.75" x2="11.72" y2="39.46" xlink:href="#linear-gradient"/><linearGradient id="linear-gradient-3" x1="207.22" y1="-121.09" x2="60.07" y2="69.93" xlink:href="#linear-gradient"/><linearGradient id="linear-gradient-4" x1="-40.8" y1="186.04" x2="88.99" y2="35.22" xlink:href="#linear-gradient"/><linearGradient id="linear-gradient-5" x1="310.9" y1="168.75" x2="11.11" y2="28.45" xlink:href="#linear-gradient"/><linearGradient id="linear-gradient-6" x1="-41.73" y1="151.04" x2="92" y2="39.74" xlink:href="#linear-gradient"/><linearGradient id="linear-gradient-7" x1="199.26" y1="197.76" x2="61.79" y2="41.26" xlink:href="#linear-gradient"/><linearGradient id="linear-gradient-8" x1="11.65" y1="209.26" x2="68.4" y2="59.81" xlink:href="#linear-gradient"/><linearGradient id="linear-gradient-9" x1="132.23" y1="-111.24" x2="73.72" y2="45.61" xlink:href="#linear-gradient"/><linearGradient id="linear-gradient-10" x1="135.27" y1="-137.91" x2="28.03" y2="146.04" xlink:href="#linear-gradient"/><linearGradient id="linear-gradient-11" x1="231.26" y1="-62.16" x2="25.15" y2="90.48" xlink:href="#linear-gradient"/><linearGradient id="linear-gradient-12" x1="-183.99" y1="156.88" x2="99.36" y2="52.68" xlink:href="#linear-gradient"/><linearGradient id="linear-gradient-13" x1="70.17" y1="-107.2" x2="56.46" y2="78.8" xlink:href="#linear-gradient"/><linearGradient id="linear-gradient-14" x1="142.72" y1="-109.06" x2="35.33" y2="113.95" xlink:href="#linear-gradient"/><linearGradient id="linear-gradient-15" x1="-23.5" y1="199.61" x2="55.67" y2="70.69" xlink:href="#linear-gradient"/><linearGradient id="linear-gradient-16" x1="160.83" y1="-14.82" x2="25.94" y2="91.52" xlink:href="#linear-gradient"/><linearGradient id="linear-gradient-17" x1="-68.53" y1="-60.06" x2="58.97" y2="89.85" xlink:href="#linear-gradient"/><linearGradient id="linear-gradient-18" x1="68.4" y1="-90.88" x2="57.12" y2="69.84" xlink:href="#linear-gradient"/><linearGradient id="linear-gradient-19" x1="38.76" y1="223.08" x2="56.03" y2="78.92" xlink:href="#linear-gradient"/><radialGradient id="radial-gradient" cx="83.36" cy="77.01" r="50.53" xlink:href="#linear-gradient"/><linearGradient id="linear-gradient-20" x1="119.09" y1="92.51" x2="17.95" y2="29.25" xlink:href="#linear-gradient"/><linearGradient id="linear-gradient-21" x1="139.03" y1="4.54" x2="39.6" y2="40.84" xlink:href="#linear-gradient"/><linearGradient id="linear-gradient-22" x1="-25.45" y1="113.55" x2="94.05" y2="79.59" xlink:href="#linear-gradient"/><linearGradient id="linear-gradient-23" x1="-.6" y1="20.83" x2="104.43" y2="100.33" xlink:href="#linear-gradient"/><linearGradient id="linear-gradient-24" x1="-19.54" y1="149.1" x2="63.87" y2="76.03" xlink:href="#linear-gradient"/><linearGradient id="linear-gradient-25" x1="-42.17" y1="179.94" x2="66.62" y2="74.81" xlink:href="#linear-gradient"/><linearGradient id="linear-gradient-26" x1="-23.25" y1="206.98" x2="70.28" y2="75.45" xlink:href="#linear-gradient"/><linearGradient id="linear-gradient-27" x1="-18.43" y1="152.94" x2="61.19" y2="79.29" xlink:href="#linear-gradient"/><linearGradient id="linear-gradient-28" x1="41.61" y1="202.64" x2="65.76" y2="85.66" xlink:href="#linear-gradient"/><linearGradient id="linear-gradient-29" x1="-39.21" y1="177.91" x2="47.71" y2="93.31" xlink:href="#linear-gradient"/><linearGradient id="linear-gradient-30" x1="150.05" y1="-5.35" x2="58.49" y2="55.24" xlink:href="#linear-gradient"/><linearGradient id="linear-gradient-31" x1="86.99" y1="-62.33" x2="59.51" y2="47.63" xlink:href="#linear-gradient"/><linearGradient id="linear-gradient-32" x1="115.59" y1="-96.76" x2="57.06" y2="55.31" xlink:href="#linear-gradient"/><linearGradient id="linear-gradient-33" x1="214.77" y1="-72.89" x2="48.92" y2="62.3" xlink:href="#linear-gradient"/><linearGradient id="linear-gradient-34" x1="133.25" y1="-107.34" x2="60.41" y2="47.73" xlink:href="#linear-gradient"/><linearGradient id="linear-gradient-35" x1="148.13" y1="-55.07" x2="71.78" y2="45.95" xlink:href="#linear-gradient"/><linearGradient id="linear-gradient-36" x1="-31.6" y1="142.8" x2="45.56" y2="84.12" xlink:href="#linear-gradient"/><linearGradient id="linear-gradient-37" x1="-15.72" y1="152.73" x2="41.74" y2="92.23" xlink:href="#linear-gradient"/><linearGradient id="linear-gradient-38" x1="-55.45" y1="90.2" x2="91.17" y2="87.04" xlink:href="#linear-gradient"/><linearGradient id="linear-gradient-39" x1="-22.41" y1="106.78" x2="87.09" y2="82.82" xlink:href="#linear-gradient"/><linearGradient id="linear-gradient-40" x1="141.77" y1="47.82" x2="17.87" y2="34.14" xlink:href="#linear-gradient"/><linearGradient id="linear-gradient-41" x1="9.92" y1="113.75" x2="73.89" y2="84.67" xlink:href="#linear-gradient"/><linearGradient id="linear-gradient-42" x1="43.47" y1="134.9" x2="70.21" y2="91.64" xlink:href="#linear-gradient"/><linearGradient id="linear-gradient-43" x1="135.04" y1="39.59" x2="22.62" y2="27.17" xlink:href="#linear-gradient"/><linearGradient id="linear-gradient-44" x1="125.16" y1="21.73" x2="45.87" y2="30.54" xlink:href="#linear-gradient"/></defs><g style="isolation:isolate"><g id="Layer_1" data-name="Layer 1"><path d="M105.6 30.93l-1.13-.66-36.33-21-1-.58a13.84 13.84 0 0 0-12.73 0l-1.06.61-25.89 14.96-10.72 6.18-.57.33a13.84 13.84 0 0 0-6.68 11.85v43.2a13.78 13.78 0 0 0 6.68 11.82c.2.13.4.25.61.36l36.79 21.23.58.34a13.88 13.88 0 0 0 13.2 0L104.72 98a5.32 5.32 0 0 0 .61-.35A13.8 13.8 0 0 0 112 85.82V42.59a13.81 13.81 0 0 0-6.4-11.66zm-44.86 57.7A18.88 18.88 0 0 1 42 71.66v-.3c0-.54-.07-1.08-.07-1.63a18.74 18.74 0 0 1 4.23-11.9c8.77-11.24 12.09-15 14.67-22.71 2.57 7.66 5.89 11.44 14.59 22.6a18.89 18.89 0 0 1-14.68 30.91z" transform="translate(-9.49 -7.16)" fill="#fff"/><path class="cls-3" d="M112 42.59v43.23a13.8 13.8 0 0 1-6.67 11.82 5.32 5.32 0 0 1-.61.35C76.66 113.91 43.65 93.27 42 71.66a18.89 18.89 0 1 0 33.32-13.94c-8.7-11.16-12-14.94-14.59-22.6a19.67 19.67 0 0 0-10.1-11.78 24.29 24.29 0 0 0-23.17.92L53.32 9.32l1.06-.61a13.84 13.84 0 0 1 12.73 0l1 .58 36.33 21 1.13.66A13.81 13.81 0 0 1 112 42.59z" transform="translate(-9.49 -7.16)"/><path class="cls-4" d="M112 42.59v43.23a13.8 13.8 0 0 1-6.67 11.82 5.32 5.32 0 0 1-.61.35C76.66 113.91 43.65 93.27 42 71.66a18.89 18.89 0 1 0 33.32-13.94c-8.7-11.16-12-14.94-14.59-22.6a19.67 19.67 0 0 0-10.1-11.78 24.29 24.29 0 0 0-23.17.92L53.32 9.32l1.06-.61a13.84 13.84 0 0 1 12.73 0l1 .58 36.33 21 1.13.66A13.81 13.81 0 0 1 112 42.59z" transform="translate(-9.49 -7.16)"/><path class="cls-5" d="M112 42.59v43.23a13.8 13.8 0 0 1-6.67 11.82 5.32 5.32 0 0 1-.61.35C76.66 113.91 43.65 93.27 42 71.66a18.89 18.89 0 1 0 33.32-13.94c-8.7-11.16-12-14.94-14.59-22.6a19.67 19.67 0 0 0-10.1-11.78 24.29 24.29 0 0 0-23.17.92L53.32 9.32l1.06-.61a13.84 13.84 0 0 1 12.73 0l1 .58 36.33 21 1.13.66A13.81 13.81 0 0 1 112 42.59z" transform="translate(-9.49 -7.16)"/><path class="cls-6" d="M112 42.59v43.23a13.8 13.8 0 0 1-6.67 11.82 5.32 5.32 0 0 1-.61.35C76.66 113.91 43.65 93.27 42 71.66a18.89 18.89 0 1 0 33.32-13.94c-8.7-11.16-12-14.94-14.59-22.6a19.67 19.67 0 0 0-10.1-11.78 24.29 24.29 0 0 0-23.17.92L53.32 9.32l1.06-.61a13.84 13.84 0 0 1 12.73 0l1 .58 36.33 21 1.13.66A13.81 13.81 0 0 1 112 42.59z" transform="translate(-9.49 -7.16)"/><path class="cls-7" d="M112 42.59v43.23a13.8 13.8 0 0 1-6.67 11.82 5.32 5.32 0 0 1-.61.35C76.66 113.91 43.65 93.27 42 71.66a18.89 18.89 0 1 0 33.32-13.94c-8.7-11.16-12-14.94-14.59-22.6a19.67 19.67 0 0 0-10.1-11.78 24.29 24.29 0 0 0-23.17.92L53.32 9.32l1.06-.61a13.84 13.84 0 0 1 12.73 0l1 .58 36.33 21 1.13.66A13.81 13.81 0 0 1 112 42.59z" transform="translate(-9.49 -7.16)"/><path class="cls-8" d="M112 42.59v43.23a13.8 13.8 0 0 1-6.67 11.82 5.32 5.32 0 0 1-.61.35C76.66 113.91 43.65 93.27 42 71.66a18.89 18.89 0 1 0 33.32-13.94c-8.7-11.16-12-14.94-14.59-22.6a19.67 19.67 0 0 0-10.1-11.78 24.29 24.29 0 0 0-23.17.92L53.32 9.32l1.06-.61a13.84 13.84 0 0 1 12.73 0l1 .58 36.33 21 1.13.66A13.81 13.81 0 0 1 112 42.59z" transform="translate(-9.49 -7.16)"/><path class="cls-9" d="M112 42.59v43.23a13.8 13.8 0 0 1-6.67 11.82 5.32 5.32 0 0 1-.61.35C76.66 113.91 43.65 93.27 42 71.66a18.89 18.89 0 1 0 33.32-13.94c-8.7-11.16-12-14.94-14.59-22.6a19.67 19.67 0 0 0-10.1-11.78 24.29 24.29 0 0 0-23.17.92L53.32 9.32l1.06-.61a13.84 13.84 0 0 1 12.73 0l1 .58 36.33 21 1.13.66A13.81 13.81 0 0 1 112 42.59z" transform="translate(-9.49 -7.16)"/><path class="cls-10" d="M112 42.59v43.23a13.8 13.8 0 0 1-6.67 11.82 5.32 5.32 0 0 1-.61.35C76.66 113.91 43.65 93.27 42 71.66a18.89 18.89 0 1 0 33.32-13.94c-8.7-11.16-12-14.94-14.59-22.6a19.67 19.67 0 0 0-10.1-11.78 24.29 24.29 0 0 0-23.17.92L53.32 9.32l1.06-.61a13.84 13.84 0 0 1 12.73 0l1 .58 36.33 21 1.13.66A13.81 13.81 0 0 1 112 42.59z" transform="translate(-9.49 -7.16)"/><path class="cls-11" d="M112 42.59v43.23a13.8 13.8 0 0 1-6.67 11.82 5.32 5.32 0 0 1-.61.35C76.66 113.91 43.65 93.27 42 71.66a18.89 18.89 0 1 0 33.32-13.94c-8.7-11.16-12-14.94-14.59-22.6a19.67 19.67 0 0 0-10.1-11.78 24.29 24.29 0 0 0-23.17.92L53.32 9.32l1.06-.61a13.84 13.84 0 0 1 12.73 0l1 .58 36.33 21 1.13.66A13.81 13.81 0 0 1 112 42.59z" transform="translate(-9.49 -7.16)"/><path class="cls-12" d="M104.72 98l-37.37 21.57a13.88 13.88 0 0 1-13.2 0l-.58-.34L16.78 98a7.5 7.5 0 0 1-.61-.36 13.78 13.78 0 0 1-6.68-11.82v-43.2a13.84 13.84 0 0 1 6.68-11.85l.57-.33 10.72-6.18a24.29 24.29 0 0 1 23.17-.92 19.67 19.67 0 0 1 10.11 11.77c-2.58 7.68-5.9 11.47-14.67 22.71a18.74 18.74 0 0 0-4.23 11.9c0 .55 0 1.09.07 1.63v.3c1.74 21.62 34.75 42.26 62.81 26.35z" transform="translate(-9.49 -7.16)"/><path class="cls-13" d="M104.72 98l-37.37 21.57a13.88 13.88 0 0 1-13.2 0l-.58-.34L16.78 98a7.5 7.5 0 0 1-.61-.36 13.78 13.78 0 0 1-6.68-11.82v-43.2a13.84 13.84 0 0 1 6.68-11.85l.57-.33 10.72-6.18a24.29 24.29 0 0 1 23.17-.92 19.67 19.67 0 0 1 10.11 11.77c-2.58 7.68-5.9 11.47-14.67 22.71a18.74 18.74 0 0 0-4.23 11.9c0 .55 0 1.09.07 1.63v.3c1.74 21.62 34.75 42.26 62.81 26.35z" transform="translate(-9.49 -7.16)"/><path class="cls-14" d="M104.72 98l-37.37 21.57a13.88 13.88 0 0 1-13.2 0l-.58-.34L16.78 98a7.5 7.5 0 0 1-.61-.36 13.78 13.78 0 0 1-6.68-11.82v-43.2a13.84 13.84 0 0 1 6.68-11.85l.57-.33 10.72-6.18a24.29 24.29 0 0 1 23.17-.92 19.67 19.67 0 0 1 10.11 11.77c-2.58 7.68-5.9 11.47-14.67 22.71a18.74 18.74 0 0 0-4.23 11.9c0 .55 0 1.09.07 1.63v.3c1.74 21.62 34.75 42.26 62.81 26.35z" transform="translate(-9.49 -7.16)"/><path class="cls-15" d="M104.72 98l-37.37 21.57a13.88 13.88 0 0 1-13.2 0l-.58-.34L16.78 98a7.5 7.5 0 0 1-.61-.36 13.78 13.78 0 0 1-6.68-11.82v-43.2a13.84 13.84 0 0 1 6.68-11.85l.57-.33 10.72-6.18a24.29 24.29 0 0 1 23.17-.92 19.67 19.67 0 0 1 10.11 11.77c-2.58 7.68-5.9 11.47-14.67 22.71a18.74 18.74 0 0 0-4.23 11.9c0 .55 0 1.09.07 1.63v.3c1.74 21.62 34.75 42.26 62.81 26.35z" transform="translate(-9.49 -7.16)"/><path class="cls-16" d="M104.72 98l-37.37 21.57a13.88 13.88 0 0 1-13.2 0l-.58-.34L16.78 98a7.5 7.5 0 0 1-.61-.36 13.78 13.78 0 0 1-6.68-11.82v-43.2a13.84 13.84 0 0 1 6.68-11.85l.57-.33 10.72-6.18a24.29 24.29 0 0 1 23.17-.92 19.67 19.67 0 0 1 10.11 11.77c-2.58 7.68-5.9 11.47-14.67 22.71a18.74 18.74 0 0 0-4.23 11.9c0 .55 0 1.09.07 1.63v.3c1.74 21.62 34.75 42.26 62.81 26.35z" transform="translate(-9.49 -7.16)"/><path class="cls-17" d="M104.72 98l-37.37 21.57a13.88 13.88 0 0 1-13.2 0l-.58-.34L16.78 98a7.5 7.5 0 0 1-.61-.36 13.78 13.78 0 0 1-6.68-11.82v-43.2a13.84 13.84 0 0 1 6.68-11.85l.57-.33 10.72-6.18a24.29 24.29 0 0 1 23.17-.92 19.67 19.67 0 0 1 10.11 11.77c-2.58 7.68-5.9 11.47-14.67 22.71a18.74 18.74 0 0 0-4.23 11.9c0 .55 0 1.09.07 1.63v.3c1.74 21.62 34.75 42.26 62.81 26.35z" transform="translate(-9.49 -7.16)"/><path class="cls-18" d="M104.72 98l-37.37 21.57a13.88 13.88 0 0 1-13.2 0l-.58-.34L16.78 98a7.5 7.5 0 0 1-.61-.36 13.78 13.78 0 0 1-6.68-11.82v-43.2a13.84 13.84 0 0 1 6.68-11.85l.57-.33 10.72-6.18a24.29 24.29 0 0 1 23.17-.92 19.67 19.67 0 0 1 10.11 11.77c-2.58 7.68-5.9 11.47-14.67 22.71a18.74 18.74 0 0 0-4.23 11.9c0 .55 0 1.09.07 1.63v.3c1.74 21.62 34.75 42.26 62.81 26.35z" transform="translate(-9.49 -7.16)"/><path class="cls-19" d="M104.72 98l-37.37 21.57a13.88 13.88 0 0 1-13.2 0l-.58-.34L16.78 98a7.5 7.5 0 0 1-.61-.36 13.78 13.78 0 0 1-6.68-11.82v-43.2a13.84 13.84 0 0 1 6.68-11.85l.57-.33 10.72-6.18a24.29 24.29 0 0 1 23.17-.92 19.67 19.67 0 0 1 10.11 11.77c-2.58 7.68-5.9 11.47-14.67 22.71a18.74 18.74 0 0 0-4.23 11.9c0 .55 0 1.09.07 1.63v.3c1.74 21.62 34.75 42.26 62.81 26.35z" transform="translate(-9.49 -7.16)"/><path class="cls-20" d="M104.72 98l-37.37 21.57a13.88 13.88 0 0 1-13.2 0l-.58-.34L16.78 98a7.5 7.5 0 0 1-.61-.36 13.78 13.78 0 0 1-6.68-11.82v-43.2a13.84 13.84 0 0 1 6.68-11.85l.57-.33 10.72-6.18a24.29 24.29 0 0 1 23.17-.92 19.67 19.67 0 0 1 10.11 11.77c-2.58 7.68-5.9 11.47-14.67 22.71a18.74 18.74 0 0 0-4.23 11.9c0 .55 0 1.09.07 1.63v.3c1.74 21.62 34.75 42.26 62.81 26.35z" transform="translate(-9.49 -7.16)"/><path class="cls-21" d="M104.72 98l-37.37 21.57a13.88 13.88 0 0 1-13.2 0l-.58-.34L16.78 98a7.5 7.5 0 0 1-.61-.36 13.78 13.78 0 0 1-6.68-11.82v-43.2a13.84 13.84 0 0 1 6.68-11.85l.57-.33 10.72-6.18a24.29 24.29 0 0 1 23.17-.92 19.67 19.67 0 0 1 10.11 11.77c-2.58 7.68-5.9 11.47-14.67 22.71a18.74 18.74 0 0 0-4.23 11.9c0 .55 0 1.09.07 1.63v.3c1.74 21.62 34.75 42.26 62.81 26.35z" transform="translate(-9.49 -7.16)"/><path class="cls-22" d="M104.72 98l-37.37 21.57a13.88 13.88 0 0 1-13.2 0l-.58-.34L16.78 98a7.5 7.5 0 0 1-.61-.36 13.78 13.78 0 0 1-6.68-11.82v-43.2a13.84 13.84 0 0 1 6.68-11.85l.57-.33 10.72-6.18a24.29 24.29 0 0 1 23.17-.92 19.67 19.67 0 0 1 10.11 11.77c-2.58 7.68-5.9 11.47-14.67 22.71a18.74 18.74 0 0 0-4.23 11.9c0 .55 0 1.09.07 1.63v.3c1.74 21.62 34.75 42.26 62.81 26.35z" transform="translate(-9.49 -7.16)"/><path class="cls-23" d="M9.49 50.41v-7.79a13.84 13.84 0 0 1 6.68-11.85l.57-.33 10.72-6.18a24.29 24.29 0 0 1 23.17-.92 19.67 19.67 0 0 1 10.11 11.77c-2.58 7.68-5.9 11.47-14.67 22.71a18.58 18.58 0 0 0-1.87 2.76c5.89-10.49-1.55-22-13.92-24.13-10.83-1.81-20.79 4.39-20.79 13.96z" transform="translate(-9.49 -7.16)"/><path class="cls-24" d="M9.49 50.41v-7.79a13.84 13.84 0 0 1 6.68-11.85l.57-.33 10.72-6.18a24.29 24.29 0 0 1 23.17-.92 19.67 19.67 0 0 1 10.11 11.77c-2.58 7.68-5.9 11.47-14.67 22.71a18.58 18.58 0 0 0-1.87 2.76c5.89-10.49-1.55-22-13.92-24.13-10.83-1.81-20.79 4.39-20.79 13.96z" transform="translate(-9.49 -7.16)"/><path class="cls-25" d="M112 75.4v10.42a13.8 13.8 0 0 1-6.67 11.82 5.32 5.32 0 0 1-.61.35C76.66 113.91 43.65 93.27 42 71.66a18.9 18.9 0 0 0 37.66-.73c-.4 11.89 10.5 18.86 19.76 18.19 6.71-.48 12.58-5.4 12.58-13.72zm-32.37-5.05z" transform="translate(-9.49 -7.16)"/><path class="cls-26" d="M112 75.4v10.42a13.8 13.8 0 0 1-6.67 11.82 5.32 5.32 0 0 1-.61.35C76.66 113.91 43.65 93.27 42 71.66a18.9 18.9 0 0 0 37.66-.73c-.4 11.89 10.5 18.86 19.76 18.19 6.71-.48 12.58-5.4 12.58-13.72zm-32.37-5.05z" transform="translate(-9.49 -7.16)"/><path class="cls-27" d="M104.72 98l-37.37 21.57a13.88 13.88 0 0 1-13.2 0l-.58-.34C38.2 110.36 11.84 79.32 37.5 51.69c11.25-12.12 15.66-20.14 17.36-25.52a19.18 19.18 0 0 1 5.88 8.94c-2.58 7.68-5.9 11.47-14.67 22.71a18.74 18.74 0 0 0-4.23 11.9c0 .55 0 1.09.07 1.63v.3c1.74 21.62 34.75 42.26 62.81 26.35z" transform="translate(-9.49 -7.16)"/><path class="cls-28" d="M104.72 98l-37.37 21.57a13.88 13.88 0 0 1-13.2 0l-.58-.34C38.2 110.36 11.84 79.32 37.5 51.69c11.25-12.12 15.66-20.14 17.36-25.52a19.18 19.18 0 0 1 5.88 8.94c-2.58 7.68-5.9 11.47-14.67 22.71a18.74 18.74 0 0 0-4.23 11.9c0 .55 0 1.09.07 1.63v.3c1.74 21.62 34.75 42.26 62.81 26.35z" transform="translate(-9.49 -7.16)"/><path class="cls-29" d="M104.72 98l-37.37 21.57a13.88 13.88 0 0 1-13.2 0l-.58-.34C38.2 110.36 11.84 79.32 37.5 51.69c11.25-12.12 15.66-20.14 17.36-25.52a19.18 19.18 0 0 1 5.88 8.94c-2.58 7.68-5.9 11.47-14.67 22.71a18.74 18.74 0 0 0-4.23 11.9c0 .55 0 1.09.07 1.63v.3c1.74 21.62 34.75 42.26 62.81 26.35z" transform="translate(-9.49 -7.16)"/><path class="cls-30" d="M104.72 98l-37.37 21.57a13.88 13.88 0 0 1-13.2 0l-.58-.34C38.2 110.36 11.84 79.32 37.5 51.69c11.25-12.12 15.66-20.14 17.36-25.52a19.18 19.18 0 0 1 5.88 8.94c-2.58 7.68-5.9 11.47-14.67 22.71a18.74 18.74 0 0 0-4.23 11.9c0 .55 0 1.09.07 1.63v.3c1.74 21.62 34.75 42.26 62.81 26.35z" transform="translate(-9.49 -7.16)"/><path class="cls-31" d="M104.72 98l-37.37 21.57a13.88 13.88 0 0 1-13.2 0l-.58-.34C38.2 110.36 11.84 79.32 37.5 51.69c11.25-12.12 15.66-20.14 17.36-25.52a19.18 19.18 0 0 1 5.88 8.94c-2.58 7.68-5.9 11.47-14.67 22.71a18.74 18.74 0 0 0-4.23 11.9c0 .55 0 1.09.07 1.63v.3c1.74 21.62 34.75 42.26 62.81 26.35z" transform="translate(-9.49 -7.16)"/><path class="cls-32" d="M104.72 98l-37.37 21.57a13.88 13.88 0 0 1-13.2 0l-.58-.34C38.2 110.36 11.84 79.32 37.5 51.69c11.25-12.12 15.66-20.14 17.36-25.52a19.18 19.18 0 0 1 5.88 8.94c-2.58 7.68-5.9 11.47-14.67 22.71a18.74 18.74 0 0 0-4.23 11.9c0 .55 0 1.09.07 1.63v.3c1.74 21.62 34.75 42.26 62.81 26.35z" transform="translate(-9.49 -7.16)"/><path class="cls-33" d="M60.75 7.16a13.59 13.59 0 0 1 6.36 1.55c14.07 8.12 28 42.14 23.45 66-2.71 14.38-14.17 24.6-30.26 22.49C50 91.12 42.72 81.49 42 71.66a18.89 18.89 0 1 0 33.32-13.94c-8.7-11.16-12-14.94-14.59-22.6a19.67 19.67 0 0 0-10.1-11.78 24.29 24.29 0 0 0-23.17.92L53.32 9.32l1.06-.61a13.63 13.63 0 0 1 6.37-1.55z" transform="translate(-9.49 -7.16)"/><path class="cls-34" d="M60.75 7.16a13.59 13.59 0 0 1 6.36 1.55c14.07 8.12 28 42.14 23.45 66-2.71 14.38-14.17 24.6-30.26 22.49C50 91.12 42.72 81.49 42 71.66a18.89 18.89 0 1 0 33.32-13.94c-8.7-11.16-12-14.94-14.59-22.6a19.67 19.67 0 0 0-10.1-11.78 24.29 24.29 0 0 0-23.17.92L53.32 9.32l1.06-.61a13.63 13.63 0 0 1 6.37-1.55z" transform="translate(-9.49 -7.16)"/><path class="cls-35" d="M60.75 7.16a13.59 13.59 0 0 1 6.36 1.55c14.07 8.12 28 42.14 23.45 66-2.71 14.38-14.17 24.6-30.26 22.49C50 91.12 42.72 81.49 42 71.66a18.89 18.89 0 1 0 33.32-13.94c-8.7-11.16-12-14.94-14.59-22.6a19.67 19.67 0 0 0-10.1-11.78 24.29 24.29 0 0 0-23.17.92L53.32 9.32l1.06-.61a13.63 13.63 0 0 1 6.37-1.55z" transform="translate(-9.49 -7.16)"/><path class="cls-36" d="M60.75 7.16a13.59 13.59 0 0 1 6.36 1.55c14.07 8.12 28 42.14 23.45 66-2.71 14.38-14.17 24.6-30.26 22.49C50 91.12 42.72 81.49 42 71.66a18.89 18.89 0 1 0 33.32-13.94c-8.7-11.16-12-14.94-14.59-22.6a19.67 19.67 0 0 0-10.1-11.78 24.29 24.29 0 0 0-23.17.92L53.32 9.32l1.06-.61a13.63 13.63 0 0 1 6.37-1.55z" transform="translate(-9.49 -7.16)"/><path class="cls-37" d="M60.75 7.16a13.59 13.59 0 0 1 6.36 1.55c14.07 8.12 28 42.14 23.45 66-2.71 14.38-14.17 24.6-30.26 22.49C50 91.12 42.72 81.49 42 71.66a18.89 18.89 0 1 0 33.32-13.94c-8.7-11.16-12-14.94-14.59-22.6a19.67 19.67 0 0 0-10.1-11.78 24.29 24.29 0 0 0-23.17.92L53.32 9.32l1.06-.61a13.63 13.63 0 0 1 6.37-1.55z" transform="translate(-9.49 -7.16)"/><path class="cls-38" d="M90.56 74.71C87.85 89.09 76.39 99.31 60.3 97.2a44 44 0 0 1-6.92-5 32.07 32.07 0 0 0 7.69 2.73 29.84 29.84 0 0 0 3.37.2 23.09 23.09 0 0 0 15.77-5.86 26.57 26.57 0 0 0 8-15c2-10.63.31-24.35-4.65-37.64-4-10.84-9.76-19.81-15.35-24.29a17.25 17.25 0 0 0-2-1.4 18.94 18.94 0 0 0-10.43-2.86 13.85 13.85 0 0 1 11.33.63c14.07 8.12 27.95 42.14 23.45 66z" transform="translate(-9.49 -7.16)"/><path class="cls-39" d="M64.23 120.8a13.91 13.91 0 0 1-10.08-1.23l-.58-.34C38.2 110.36 11.84 79.32 37.5 51.69c11.25-12.12 15.66-20.14 17.36-25.52a20.78 20.78 0 0 1 2 2c-.64 1.45-1.13 2.32-1.13 2.32-2.9 6.5-8.34 14-16.51 22.82-8 8.64-11.3 18.25-9.75 28.57 1.37 9.08 6.22 16.78 10 21.64a57.65 57.65 0 0 0 15.23 13.7l.23.13a29 29 0 0 0 9.3 3.45z" transform="translate(-9.49 -7.16)"/><path class="cls-40" d="M64.23 120.8a13.91 13.91 0 0 1-10.08-1.23l-.58-.34C38.2 110.36 11.84 79.32 37.5 51.69c11.25-12.12 15.66-20.14 17.36-25.52a20.78 20.78 0 0 1 2 2c-.64 1.45-1.13 2.32-1.13 2.32-2.9 6.5-8.34 14-16.51 22.82-8 8.64-11.3 18.25-9.75 28.57 1.37 9.08 6.22 16.78 10 21.64a57.65 57.65 0 0 0 15.23 13.7l.23.13a29 29 0 0 0 9.3 3.45z" transform="translate(-9.49 -7.16)"/><path class="cls-41" d="M105.33 97.64a5.32 5.32 0 0 1-.61.35C76.66 113.91 43.65 93.27 42 71.66a18.9 18.9 0 0 0 27.4 14.9c10.83 19.19 30.01 14.5 35.93 11.08z" transform="translate(-9.49 -7.16)"/><path class="cls-42" d="M105.33 97.64a5.32 5.32 0 0 1-.61.35C76.66 113.91 43.65 93.27 42 71.66a18.9 18.9 0 0 0 27.4 14.9c10.83 19.19 30.01 14.5 35.93 11.08z" transform="translate(-9.49 -7.16)"/><path class="cls-43" d="M27.46 24.26a24.29 24.29 0 0 1 23.17-.92 19.67 19.67 0 0 1 10.11 11.77c-2.22 6.61-5 10.34-11.31 18.42 4.93-23.3-13.55-34.13-25.94-27z" transform="translate(-9.49 -7.16)"/><path class="cls-44" d="M102.26 96.66a40 40 0 0 1-18.74 4.62A42.55 42.55 0 0 1 69 98.71a44.08 44.08 0 0 1-12.32-6.81q-1.14-.9-2.19-1.9a19.62 19.62 0 0 1-3.6-4.18A18.91 18.91 0 0 1 42 71.66c1.7 21.61 34.71 42.25 62.77 26.33a5.32 5.32 0 0 0 .61-.35 13.89 13.89 0 0 0 6-7.59 34.41 34.41 0 0 1-9.12 6.61z" transform="translate(-9.49 -7.16)"/><path class="cls-45" d="M102.26 96.66a40 40 0 0 1-18.74 4.62A42.55 42.55 0 0 1 69 98.71a44.08 44.08 0 0 1-12.32-6.81q-1.14-.9-2.19-1.9a19.62 19.62 0 0 1-3.6-4.18A18.91 18.91 0 0 1 42 71.66c1.7 21.61 34.71 42.25 62.77 26.33a5.32 5.32 0 0 0 .61-.35 13.89 13.89 0 0 0 6-7.59 34.41 34.41 0 0 1-9.12 6.61z" transform="translate(-9.49 -7.16)"/><path class="cls-46" d="M40.88 23.2c.5 0 1 .06 1.49.11h.11a21 21 0 0 1 3 .55 19.25 19.25 0 0 1 4.06 1.55 17.29 17.29 0 0 1 8.71 9.67 16.89 16.89 0 0 1 .75 4.51 40.58 40.58 0 0 0 1.79-4.48 19.67 19.67 0 0 0-10.16-11.77 24.29 24.29 0 0 0-23.17.92l-.19.11a45.4 45.4 0 0 1 13.61-1.17z" transform="translate(-9.49 -7.16)"/><path class="cls-47" d="M40.88 23.2c.5 0 1 .06 1.49.11h.11a21 21 0 0 1 3 .55 19.25 19.25 0 0 1 4.06 1.55 17.29 17.29 0 0 1 8.71 9.67 16.89 16.89 0 0 1 .75 4.51 40.58 40.58 0 0 0 1.79-4.48 19.67 19.67 0 0 0-10.16-11.77 24.29 24.29 0 0 0-23.17.92l-.19.11a45.4 45.4 0 0 1 13.61-1.17z" transform="translate(-9.49 -7.16)"/><g opacity=".4"><path class="cls-3" d="M112 42.59v43.23a13.8 13.8 0 0 1-6.67 11.82 5.32 5.32 0 0 1-.61.35C76.66 113.91 43.65 93.27 42 71.66a18.89 18.89 0 1 0 33.32-13.94c-8.7-11.16-12-14.94-14.59-22.6a19.67 19.67 0 0 0-10.1-11.78 24.29 24.29 0 0 0-23.17.92L53.32 9.32l1.06-.61a13.84 13.84 0 0 1 12.73 0l1 .58 36.33 21 1.13.66A13.81 13.81 0 0 1 112 42.59z" transform="translate(-9.49 -7.16)"/><path class="cls-4" d="M112 42.59v43.23a13.8 13.8 0 0 1-6.67 11.82 5.32 5.32 0 0 1-.61.35C76.66 113.91 43.65 93.27 42 71.66a18.89 18.89 0 1 0 33.32-13.94c-8.7-11.16-12-14.94-14.59-22.6a19.67 19.67 0 0 0-10.1-11.78 24.29 24.29 0 0 0-23.17.92L53.32 9.32l1.06-.61a13.84 13.84 0 0 1 12.73 0l1 .58 36.33 21 1.13.66A13.81 13.81 0 0 1 112 42.59z" transform="translate(-9.49 -7.16)"/><path class="cls-5" d="M112 42.59v43.23a13.8 13.8 0 0 1-6.67 11.82 5.32 5.32 0 0 1-.61.35C76.66 113.91 43.65 93.27 42 71.66a18.89 18.89 0 1 0 33.32-13.94c-8.7-11.16-12-14.94-14.59-22.6a19.67 19.67 0 0 0-10.1-11.78 24.29 24.29 0 0 0-23.17.92L53.32 9.32l1.06-.61a13.84 13.84 0 0 1 12.73 0l1 .58 36.33 21 1.13.66A13.81 13.81 0 0 1 112 42.59z" transform="translate(-9.49 -7.16)"/><path class="cls-6" d="M112 42.59v43.23a13.8 13.8 0 0 1-6.67 11.82 5.32 5.32 0 0 1-.61.35C76.66 113.91 43.65 93.27 42 71.66a18.89 18.89 0 1 0 33.32-13.94c-8.7-11.16-12-14.94-14.59-22.6a19.67 19.67 0 0 0-10.1-11.78 24.29 24.29 0 0 0-23.17.92L53.32 9.32l1.06-.61a13.84 13.84 0 0 1 12.73 0l1 .58 36.33 21 1.13.66A13.81 13.81 0 0 1 112 42.59z" transform="translate(-9.49 -7.16)"/><path class="cls-7" d="M112 42.59v43.23a13.8 13.8 0 0 1-6.67 11.82 5.32 5.32 0 0 1-.61.35C76.66 113.91 43.65 93.27 42 71.66a18.89 18.89 0 1 0 33.32-13.94c-8.7-11.16-12-14.94-14.59-22.6a19.67 19.67 0 0 0-10.1-11.78 24.29 24.29 0 0 0-23.17.92L53.32 9.32l1.06-.61a13.84 13.84 0 0 1 12.73 0l1 .58 36.33 21 1.13.66A13.81 13.81 0 0 1 112 42.59z" transform="translate(-9.49 -7.16)"/><path class="cls-8" d="M112 42.59v43.23a13.8 13.8 0 0 1-6.67 11.82 5.32 5.32 0 0 1-.61.35C76.66 113.91 43.65 93.27 42 71.66a18.89 18.89 0 1 0 33.32-13.94c-8.7-11.16-12-14.94-14.59-22.6a19.67 19.67 0 0 0-10.1-11.78 24.29 24.29 0 0 0-23.17.92L53.32 9.32l1.06-.61a13.84 13.84 0 0 1 12.73 0l1 .58 36.33 21 1.13.66A13.81 13.81 0 0 1 112 42.59z" transform="translate(-9.49 -7.16)"/><path class="cls-9" d="M112 42.59v43.23a13.8 13.8 0 0 1-6.67 11.82 5.32 5.32 0 0 1-.61.35C76.66 113.91 43.65 93.27 42 71.66a18.89 18.89 0 1 0 33.32-13.94c-8.7-11.16-12-14.94-14.59-22.6a19.67 19.67 0 0 0-10.1-11.78 24.29 24.29 0 0 0-23.17.92L53.32 9.32l1.06-.61a13.84 13.84 0 0 1 12.73 0l1 .58 36.33 21 1.13.66A13.81 13.81 0 0 1 112 42.59z" transform="translate(-9.49 -7.16)"/><path class="cls-10" d="M112 42.59v43.23a13.8 13.8 0 0 1-6.67 11.82 5.32 5.32 0 0 1-.61.35C76.66 113.91 43.65 93.27 42 71.66a18.89 18.89 0 1 0 33.32-13.94c-8.7-11.16-12-14.94-14.59-22.6a19.67 19.67 0 0 0-10.1-11.78 24.29 24.29 0 0 0-23.17.92L53.32 9.32l1.06-.61a13.84 13.84 0 0 1 12.73 0l1 .58 36.33 21 1.13.66A13.81 13.81 0 0 1 112 42.59z" transform="translate(-9.49 -7.16)"/><path class="cls-11" d="M112 42.59v43.23a13.8 13.8 0 0 1-6.67 11.82 5.32 5.32 0 0 1-.61.35C76.66 113.91 43.65 93.27 42 71.66a18.89 18.89 0 1 0 33.32-13.94c-8.7-11.16-12-14.94-14.59-22.6a19.67 19.67 0 0 0-10.1-11.78 24.29 24.29 0 0 0-23.17.92L53.32 9.32l1.06-.61a13.84 13.84 0 0 1 12.73 0l1 .58 36.33 21 1.13.66A13.81 13.81 0 0 1 112 42.59z" transform="translate(-9.49 -7.16)"/><path class="cls-12" d="M104.72 98l-37.37 21.57a13.88 13.88 0 0 1-13.2 0l-.58-.34L16.78 98a7.5 7.5 0 0 1-.61-.36 13.78 13.78 0 0 1-6.68-11.82v-43.2a13.84 13.84 0 0 1 6.68-11.85l.57-.33 10.72-6.18a24.29 24.29 0 0 1 23.17-.92 19.67 19.67 0 0 1 10.11 11.77c-2.58 7.68-5.9 11.47-14.67 22.71a18.74 18.74 0 0 0-4.23 11.9c0 .55 0 1.09.07 1.63v.3c1.74 21.62 34.75 42.26 62.81 26.35z" transform="translate(-9.49 -7.16)"/><path class="cls-13" d="M104.72 98l-37.37 21.57a13.88 13.88 0 0 1-13.2 0l-.58-.34L16.78 98a7.5 7.5 0 0 1-.61-.36 13.78 13.78 0 0 1-6.68-11.82v-43.2a13.84 13.84 0 0 1 6.68-11.85l.57-.33 10.72-6.18a24.29 24.29 0 0 1 23.17-.92 19.67 19.67 0 0 1 10.11 11.77c-2.58 7.68-5.9 11.47-14.67 22.71a18.74 18.74 0 0 0-4.23 11.9c0 .55 0 1.09.07 1.63v.3c1.74 21.62 34.75 42.26 62.81 26.35z" transform="translate(-9.49 -7.16)"/><path class="cls-14" d="M104.72 98l-37.37 21.57a13.88 13.88 0 0 1-13.2 0l-.58-.34L16.78 98a7.5 7.5 0 0 1-.61-.36 13.78 13.78 0 0 1-6.68-11.82v-43.2a13.84 13.84 0 0 1 6.68-11.85l.57-.33 10.72-6.18a24.29 24.29 0 0 1 23.17-.92 19.67 19.67 0 0 1 10.11 11.77c-2.58 7.68-5.9 11.47-14.67 22.71a18.74 18.74 0 0 0-4.23 11.9c0 .55 0 1.09.07 1.63v.3c1.74 21.62 34.75 42.26 62.81 26.35z" transform="translate(-9.49 -7.16)"/><path class="cls-15" d="M104.72 98l-37.37 21.57a13.88 13.88 0 0 1-13.2 0l-.58-.34L16.78 98a7.5 7.5 0 0 1-.61-.36 13.78 13.78 0 0 1-6.68-11.82v-43.2a13.84 13.84 0 0 1 6.68-11.85l.57-.33 10.72-6.18a24.29 24.29 0 0 1 23.17-.92 19.67 19.67 0 0 1 10.11 11.77c-2.58 7.68-5.9 11.47-14.67 22.71a18.74 18.74 0 0 0-4.23 11.9c0 .55 0 1.09.07 1.63v.3c1.74 21.62 34.75 42.26 62.81 26.35z" transform="translate(-9.49 -7.16)"/><path class="cls-16" d="M104.72 98l-37.37 21.57a13.88 13.88 0 0 1-13.2 0l-.58-.34L16.78 98a7.5 7.5 0 0 1-.61-.36 13.78 13.78 0 0 1-6.68-11.82v-43.2a13.84 13.84 0 0 1 6.68-11.85l.57-.33 10.72-6.18a24.29 24.29 0 0 1 23.17-.92 19.67 19.67 0 0 1 10.11 11.77c-2.58 7.68-5.9 11.47-14.67 22.71a18.74 18.74 0 0 0-4.23 11.9c0 .55 0 1.09.07 1.63v.3c1.74 21.62 34.75 42.26 62.81 26.35z" transform="translate(-9.49 -7.16)"/><path class="cls-17" d="M104.72 98l-37.37 21.57a13.88 13.88 0 0 1-13.2 0l-.58-.34L16.78 98a7.5 7.5 0 0 1-.61-.36 13.78 13.78 0 0 1-6.68-11.82v-43.2a13.84 13.84 0 0 1 6.68-11.85l.57-.33 10.72-6.18a24.29 24.29 0 0 1 23.17-.92 19.67 19.67 0 0 1 10.11 11.77c-2.58 7.68-5.9 11.47-14.67 22.71a18.74 18.74 0 0 0-4.23 11.9c0 .55 0 1.09.07 1.63v.3c1.74 21.62 34.75 42.26 62.81 26.35z" transform="translate(-9.49 -7.16)"/><path class="cls-18" d="M104.72 98l-37.37 21.57a13.88 13.88 0 0 1-13.2 0l-.58-.34L16.78 98a7.5 7.5 0 0 1-.61-.36 13.78 13.78 0 0 1-6.68-11.82v-43.2a13.84 13.84 0 0 1 6.68-11.85l.57-.33 10.72-6.18a24.29 24.29 0 0 1 23.17-.92 19.67 19.67 0 0 1 10.11 11.77c-2.58 7.68-5.9 11.47-14.67 22.71a18.74 18.74 0 0 0-4.23 11.9c0 .55 0 1.09.07 1.63v.3c1.74 21.62 34.75 42.26 62.81 26.35z" transform="translate(-9.49 -7.16)"/><path class="cls-19" d="M104.72 98l-37.37 21.57a13.88 13.88 0 0 1-13.2 0l-.58-.34L16.78 98a7.5 7.5 0 0 1-.61-.36 13.78 13.78 0 0 1-6.68-11.82v-43.2a13.84 13.84 0 0 1 6.68-11.85l.57-.33 10.72-6.18a24.29 24.29 0 0 1 23.17-.92 19.67 19.67 0 0 1 10.11 11.77c-2.58 7.68-5.9 11.47-14.67 22.71a18.74 18.74 0 0 0-4.23 11.9c0 .55 0 1.09.07 1.63v.3c1.74 21.62 34.75 42.26 62.81 26.35z" transform="translate(-9.49 -7.16)"/><path class="cls-20" d="M104.72 98l-37.37 21.57a13.88 13.88 0 0 1-13.2 0l-.58-.34L16.78 98a7.5 7.5 0 0 1-.61-.36 13.78 13.78 0 0 1-6.68-11.82v-43.2a13.84 13.84 0 0 1 6.68-11.85l.57-.33 10.72-6.18a24.29 24.29 0 0 1 23.17-.92 19.67 19.67 0 0 1 10.11 11.77c-2.58 7.68-5.9 11.47-14.67 22.71a18.74 18.74 0 0 0-4.23 11.9c0 .55 0 1.09.07 1.63v.3c1.74 21.62 34.75 42.26 62.81 26.35z" transform="translate(-9.49 -7.16)"/><path class="cls-21" d="M104.72 98l-37.37 21.57a13.88 13.88 0 0 1-13.2 0l-.58-.34L16.78 98a7.5 7.5 0 0 1-.61-.36 13.78 13.78 0 0 1-6.68-11.82v-43.2a13.84 13.84 0 0 1 6.68-11.85l.57-.33 10.72-6.18a24.29 24.29 0 0 1 23.17-.92 19.67 19.67 0 0 1 10.11 11.77c-2.58 7.68-5.9 11.47-14.67 22.71a18.74 18.74 0 0 0-4.23 11.9c0 .55 0 1.09.07 1.63v.3c1.74 21.62 34.75 42.26 62.81 26.35z" transform="translate(-9.49 -7.16)"/><path class="cls-22" d="M104.72 98l-37.37 21.57a13.88 13.88 0 0 1-13.2 0l-.58-.34L16.78 98a7.5 7.5 0 0 1-.61-.36 13.78 13.78 0 0 1-6.68-11.82v-43.2a13.84 13.84 0 0 1 6.68-11.85l.57-.33 10.72-6.18a24.29 24.29 0 0 1 23.17-.92 19.67 19.67 0 0 1 10.11 11.77c-2.58 7.68-5.9 11.47-14.67 22.71a18.74 18.74 0 0 0-4.23 11.9c0 .55 0 1.09.07 1.63v.3c1.74 21.62 34.75 42.26 62.81 26.35z" transform="translate(-9.49 -7.16)"/><path class="cls-23" d="M9.49 50.41v-7.79a13.84 13.84 0 0 1 6.68-11.85l.57-.33 10.72-6.18a24.29 24.29 0 0 1 23.17-.92 19.67 19.67 0 0 1 10.11 11.77c-2.58 7.68-5.9 11.47-14.67 22.71a18.58 18.58 0 0 0-1.87 2.76c5.89-10.49-1.55-22-13.92-24.13-10.83-1.81-20.79 4.39-20.79 13.96z" transform="translate(-9.49 -7.16)"/><path class="cls-24" d="M9.49 50.41v-7.79a13.84 13.84 0 0 1 6.68-11.85l.57-.33 10.72-6.18a24.29 24.29 0 0 1 23.17-.92 19.67 19.67 0 0 1 10.11 11.77c-2.58 7.68-5.9 11.47-14.67 22.71a18.58 18.58 0 0 0-1.87 2.76c5.89-10.49-1.55-22-13.92-24.13-10.83-1.81-20.79 4.39-20.79 13.96z" transform="translate(-9.49 -7.16)"/><path class="cls-25" d="M112 75.4v10.42a13.8 13.8 0 0 1-6.67 11.82 5.32 5.32 0 0 1-.61.35C76.66 113.91 43.65 93.27 42 71.66a18.9 18.9 0 0 0 37.66-.73c-.4 11.89 10.5 18.86 19.76 18.19 6.71-.48 12.58-5.4 12.58-13.72zm-32.37-5.05z" transform="translate(-9.49 -7.16)"/><path class="cls-26" d="M112 75.4v10.42a13.8 13.8 0 0 1-6.67 11.82 5.32 5.32 0 0 1-.61.35C76.66 113.91 43.65 93.27 42 71.66a18.9 18.9 0 0 0 37.66-.73c-.4 11.89 10.5 18.86 19.76 18.19 6.71-.48 12.58-5.4 12.58-13.72zm-32.37-5.05z" transform="translate(-9.49 -7.16)"/><path class="cls-27" d="M104.72 98l-37.37 21.57a13.88 13.88 0 0 1-13.2 0l-.58-.34C38.2 110.36 11.84 79.32 37.5 51.69c11.25-12.12 15.66-20.14 17.36-25.52a19.18 19.18 0 0 1 5.88 8.94c-2.58 7.68-5.9 11.47-14.67 22.71a18.74 18.74 0 0 0-4.23 11.9c0 .55 0 1.09.07 1.63v.3c1.74 21.62 34.75 42.26 62.81 26.35z" transform="translate(-9.49 -7.16)"/><path class="cls-28" d="M104.72 98l-37.37 21.57a13.88 13.88 0 0 1-13.2 0l-.58-.34C38.2 110.36 11.84 79.32 37.5 51.69c11.25-12.12 15.66-20.14 17.36-25.52a19.18 19.18 0 0 1 5.88 8.94c-2.58 7.68-5.9 11.47-14.67 22.71a18.74 18.74 0 0 0-4.23 11.9c0 .55 0 1.09.07 1.63v.3c1.74 21.62 34.75 42.26 62.81 26.35z" transform="translate(-9.49 -7.16)"/><path class="cls-29" d="M104.72 98l-37.37 21.57a13.88 13.88 0 0 1-13.2 0l-.58-.34C38.2 110.36 11.84 79.32 37.5 51.69c11.25-12.12 15.66-20.14 17.36-25.52a19.18 19.18 0 0 1 5.88 8.94c-2.58 7.68-5.9 11.47-14.67 22.71a18.74 18.74 0 0 0-4.23 11.9c0 .55 0 1.09.07 1.63v.3c1.74 21.62 34.75 42.26 62.81 26.35z" transform="translate(-9.49 -7.16)"/><path class="cls-30" d="M104.72 98l-37.37 21.57a13.88 13.88 0 0 1-13.2 0l-.58-.34C38.2 110.36 11.84 79.32 37.5 51.69c11.25-12.12 15.66-20.14 17.36-25.52a19.18 19.18 0 0 1 5.88 8.94c-2.58 7.68-5.9 11.47-14.67 22.71a18.74 18.74 0 0 0-4.23 11.9c0 .55 0 1.09.07 1.63v.3c1.74 21.62 34.75 42.26 62.81 26.35z" transform="translate(-9.49 -7.16)"/><path class="cls-31" d="M104.72 98l-37.37 21.57a13.88 13.88 0 0 1-13.2 0l-.58-.34C38.2 110.36 11.84 79.32 37.5 51.69c11.25-12.12 15.66-20.14 17.36-25.52a19.18 19.18 0 0 1 5.88 8.94c-2.58 7.68-5.9 11.47-14.67 22.71a18.74 18.74 0 0 0-4.23 11.9c0 .55 0 1.09.07 1.63v.3c1.74 21.62 34.75 42.26 62.81 26.35z" transform="translate(-9.49 -7.16)"/><path class="cls-32" d="M104.72 98l-37.37 21.57a13.88 13.88 0 0 1-13.2 0l-.58-.34C38.2 110.36 11.84 79.32 37.5 51.69c11.25-12.12 15.66-20.14 17.36-25.52a19.18 19.18 0 0 1 5.88 8.94c-2.58 7.68-5.9 11.47-14.67 22.71a18.74 18.74 0 0 0-4.23 11.9c0 .55 0 1.09.07 1.63v.3c1.74 21.62 34.75 42.26 62.81 26.35z" transform="translate(-9.49 -7.16)"/><path class="cls-33" d="M60.75 7.16a13.59 13.59 0 0 1 6.36 1.55c14.07 8.12 28 42.14 23.45 66-2.71 14.38-14.17 24.6-30.26 22.49C50 91.12 42.72 81.49 42 71.66a18.89 18.89 0 1 0 33.32-13.94c-8.7-11.16-12-14.94-14.59-22.6a19.67 19.67 0 0 0-10.1-11.78 24.29 24.29 0 0 0-23.17.92L53.32 9.32l1.06-.61a13.63 13.63 0 0 1 6.37-1.55z" transform="translate(-9.49 -7.16)"/><path class="cls-34" d="M60.75 7.16a13.59 13.59 0 0 1 6.36 1.55c14.07 8.12 28 42.14 23.45 66-2.71 14.38-14.17 24.6-30.26 22.49C50 91.12 42.72 81.49 42 71.66a18.89 18.89 0 1 0 33.32-13.94c-8.7-11.16-12-14.94-14.59-22.6a19.67 19.67 0 0 0-10.1-11.78 24.29 24.29 0 0 0-23.17.92L53.32 9.32l1.06-.61a13.63 13.63 0 0 1 6.37-1.55z" transform="translate(-9.49 -7.16)"/><path class="cls-35" d="M60.75 7.16a13.59 13.59 0 0 1 6.36 1.55c14.07 8.12 28 42.14 23.45 66-2.71 14.38-14.17 24.6-30.26 22.49C50 91.12 42.72 81.49 42 71.66a18.89 18.89 0 1 0 33.32-13.94c-8.7-11.16-12-14.94-14.59-22.6a19.67 19.67 0 0 0-10.1-11.78 24.29 24.29 0 0 0-23.17.92L53.32 9.32l1.06-.61a13.63 13.63 0 0 1 6.37-1.55z" transform="translate(-9.49 -7.16)"/><path class="cls-36" d="M60.75 7.16a13.59 13.59 0 0 1 6.36 1.55c14.07 8.12 28 42.14 23.45 66-2.71 14.38-14.17 24.6-30.26 22.49C50 91.12 42.72 81.49 42 71.66a18.89 18.89 0 1 0 33.32-13.94c-8.7-11.16-12-14.94-14.59-22.6a19.67 19.67 0 0 0-10.1-11.78 24.29 24.29 0 0 0-23.17.92L53.32 9.32l1.06-.61a13.63 13.63 0 0 1 6.37-1.55z" transform="translate(-9.49 -7.16)"/><path class="cls-37" d="M60.75 7.16a13.59 13.59 0 0 1 6.36 1.55c14.07 8.12 28 42.14 23.45 66-2.71 14.38-14.17 24.6-30.26 22.49C50 91.12 42.72 81.49 42 71.66a18.89 18.89 0 1 0 33.32-13.94c-8.7-11.16-12-14.94-14.59-22.6a19.67 19.67 0 0 0-10.1-11.78 24.29 24.29 0 0 0-23.17.92L53.32 9.32l1.06-.61a13.63 13.63 0 0 1 6.37-1.55z" transform="translate(-9.49 -7.16)"/><path class="cls-38" d="M90.56 74.71C87.85 89.09 76.39 99.31 60.3 97.2a44 44 0 0 1-6.92-5 32.07 32.07 0 0 0 7.69 2.73 29.84 29.84 0 0 0 3.37.2 23.09 23.09 0 0 0 15.77-5.86 26.57 26.57 0 0 0 8-15c2-10.63.31-24.35-4.65-37.64-4-10.84-9.76-19.81-15.35-24.29a17.25 17.25 0 0 0-2-1.4 18.94 18.94 0 0 0-10.43-2.86 13.85 13.85 0 0 1 11.33.63c14.07 8.12 27.95 42.14 23.45 66z" transform="translate(-9.49 -7.16)"/><path class="cls-39" d="M64.23 120.8a13.91 13.91 0 0 1-10.08-1.23l-.58-.34C38.2 110.36 11.84 79.32 37.5 51.69c11.25-12.12 15.66-20.14 17.36-25.52a20.78 20.78 0 0 1 2 2c-.64 1.45-1.13 2.32-1.13 2.32-2.9 6.5-8.34 14-16.51 22.82-8 8.64-11.3 18.25-9.75 28.57 1.37 9.08 6.22 16.78 10 21.64a57.65 57.65 0 0 0 15.23 13.7l.23.13a29 29 0 0 0 9.3 3.45z" transform="translate(-9.49 -7.16)"/><path class="cls-40" d="M64.23 120.8a13.91 13.91 0 0 1-10.08-1.23l-.58-.34C38.2 110.36 11.84 79.32 37.5 51.69c11.25-12.12 15.66-20.14 17.36-25.52a20.78 20.78 0 0 1 2 2c-.64 1.45-1.13 2.32-1.13 2.32-2.9 6.5-8.34 14-16.51 22.82-8 8.64-11.3 18.25-9.75 28.57 1.37 9.08 6.22 16.78 10 21.64a57.65 57.65 0 0 0 15.23 13.7l.23.13a29 29 0 0 0 9.3 3.45z" transform="translate(-9.49 -7.16)"/><path class="cls-41" d="M105.33 97.64a5.32 5.32 0 0 1-.61.35C76.66 113.91 43.65 93.27 42 71.66a18.9 18.9 0 0 0 27.4 14.9c10.83 19.19 30.01 14.5 35.93 11.08z" transform="translate(-9.49 -7.16)"/><path class="cls-42" d="M105.33 97.64a5.32 5.32 0 0 1-.61.35C76.66 113.91 43.65 93.27 42 71.66a18.9 18.9 0 0 0 27.4 14.9c10.83 19.19 30.01 14.5 35.93 11.08z" transform="translate(-9.49 -7.16)"/><path class="cls-43" d="M27.46 24.26a24.29 24.29 0 0 1 23.17-.92 19.67 19.67 0 0 1 10.11 11.77c-2.22 6.61-5 10.34-11.31 18.42 4.93-23.3-13.55-34.13-25.94-27z" transform="translate(-9.49 -7.16)"/><path class="cls-44" d="M102.26 96.66a40 40 0 0 1-18.74 4.62A42.55 42.55 0 0 1 69 98.71a44.08 44.08 0 0 1-12.32-6.81q-1.14-.9-2.19-1.9a19.62 19.62 0 0 1-3.6-4.18A18.91 18.91 0 0 1 42 71.66c1.7 21.61 34.71 42.25 62.77 26.33a5.32 5.32 0 0 0 .61-.35 13.89 13.89 0 0 0 6-7.59 34.41 34.41 0 0 1-9.12 6.61z" transform="translate(-9.49 -7.16)"/><path class="cls-45" d="M102.26 96.66a40 40 0 0 1-18.74 4.62A42.55 42.55 0 0 1 69 98.71a44.08 44.08 0 0 1-12.32-6.81q-1.14-.9-2.19-1.9a19.62 19.62 0 0 1-3.6-4.18A18.91 18.91 0 0 1 42 71.66c1.7 21.61 34.71 42.25 62.77 26.33a5.32 5.32 0 0 0 .61-.35 13.89 13.89 0 0 0 6-7.59 34.41 34.41 0 0 1-9.12 6.61z" transform="translate(-9.49 -7.16)"/><path class="cls-46" d="M40.88 23.2c.5 0 1 .06 1.49.11h.11a21 21 0 0 1 3 .55 19.25 19.25 0 0 1 4.06 1.55 17.29 17.29 0 0 1 8.71 9.67 16.89 16.89 0 0 1 .75 4.51 40.58 40.58 0 0 0 1.79-4.48 19.67 19.67 0 0 0-10.16-11.77 24.29 24.29 0 0 0-23.17.92l-.19.11a45.4 45.4 0 0 1 13.61-1.17z" transform="translate(-9.49 -7.16)"/><path class="cls-47" d="M40.88 23.2c.5 0 1 .06 1.49.11h.11a21 21 0 0 1 3 .55 19.25 19.25 0 0 1 4.06 1.55 17.29 17.29 0 0 1 8.71 9.67 16.89 16.89 0 0 1 .75 4.51 40.58 40.58 0 0 0 1.79-4.48 19.67 19.67 0 0 0-10.16-11.77 24.29 24.29 0 0 0-23.17.92l-.19.11a45.4 45.4 0 0 1 13.61-1.17z" transform="translate(-9.49 -7.16)"/></g><path d="M127.62 89V38h31.54v8h-22.9v13.54H157v7.85h-20.74v13.54h22.9V89zM166.26 89V36.86h8.36V89zM214.07 79c-1.87 6.12-7.42 11.09-15.84 11.09-9.51 0-17.93-6.91-17.93-18.79 0-11.09 8.2-18.44 17.06-18.44 10.8 0 17.14 7.13 17.14 18.22a11.62 11.62 0 0 1-.22 2.66h-25.63a9.39 9.39 0 0 0 9.58 9.15c5 0 7.63-2.66 8.78-6.12zm-8-11.38c-.14-4.1-2.88-7.77-8.64-7.77a8.42 8.42 0 0 0-8.57 7.77zM220.26 89V53.92h8v4.47c2-3.6 6.4-5.47 10.36-5.47 4.61 0 8.64 2.08 10.52 6.19 2.73-4.61 6.84-6.19 11.37-6.19 6.34 0 12.39 4 12.39 13.32V89h-8.07V67.6c0-4.1-2.08-7.2-6.76-7.2-4.4 0-7.28 3.46-7.28 7.78V89h-8.21V67.6c0-4-2-7.2-6.76-7.2-4.47 0-7.28 3.32-7.28 7.78V89zM312 79c-1.87 6.12-7.42 11.09-15.84 11.09-9.51 0-17.93-6.91-17.93-18.79 0-11.09 8.21-18.44 17.06-18.44 10.8 0 17.14 7.13 17.14 18.22a12.61 12.61 0 0 1-.21 2.66h-25.61a9.39 9.39 0 0 0 9.58 9.15c5 0 7.63-2.66 8.78-6.12zm-8-11.4c-.15-4.1-2.88-7.77-8.64-7.77a8.42 8.42 0 0 0-8.57 7.77zM326.58 89h-8.36V53.92h8.14v4.68a11.65 11.65 0 0 1 10.37-5.68c8.57 0 12.67 6.19 12.67 13.89V89h-8.35V68.25c0-4.32-1.94-7.77-7.2-7.77-4.75 0-7.27 3.67-7.27 8.28zM367.58 53.92h7.27v7.42h-7.27v16.27c0 3.1 1.37 4.4 4.46 4.4a17.9 17.9 0 0 0 2.88-.29v6.91a13 13 0 0 1-5.11.79c-6.48 0-10.51-3.89-10.51-10.44V61.34h-6.48v-7.42h1.8c3.74 0 5.4-2.37 5.4-5.47v-5.26h7.56z" transform="translate(-9.49 -7.16)"/></g></g></svg>
