<svg viewBox="0 0 404 145" xmlns="http://www.w3.org/2000/svg" xmlns:xlink="http://www.w3.org/1999/xlink"><defs><path d="M.06 72.188V69.22C1.619 30.744 33.342.188 72.209.188c39.652 0 71.791 32.139 71.791 72 0 39.652-32.139 72-72 72-38.663 0-70.382-30.556-71.94-69.032v-2.968zm131.629 0c0-33.045-26.644-59.689-59.516-59.689-33.045 0-59.862 26.644-59.862 59.689S39.128 131.877 72 131.877c33.045 0 59.689-26.817 59.689-59.689z" id="a"/><path d="M103.243 45.127c0-2.812-3.453-4.218-4.265-5.021-.813-.804-2.032-2.209-3.25-5.021-1.422-3.212-2.438-7.63-3.657-11.647C88.618 11.992 85.165.345 75.415.345c-4.672 0-8.531 2.811-11.376 8.233-2.031 3.816-3.656 8.635-5.078 13.254-1.422 4.217-2.844 8.434-4.469 11.446-1.219 2.41-2.437 3.214-2.844 3.414-2.64.201-3.859-1.004-7.109-5.623-3.047-4.418-7.312-10.442-15.844-10.442-8.735 0-13 6.828-16.047 12.049-3.047 5.02-4.672 6.827-7.313 7.43-2.641.603-5.078 2.209-5.078 5.021 0 2.811 2.234 4.618 5.078 4.618 8.735 0 13-6.827 16.047-12.049 3.047-5.02 4.672-7.029 7.313-7.029 2.844 0 4.469 1.808 7.516 6.226 3.25 4.618 7.516 10.643 16.453 10.04 9.141-.803 12.594-11.446 16.048-21.687 1.422-4.217 3.047-8.434 4.469-11.447 1.015-2.409 1.828-2.209 2.437-2.209.609 0 1.422-.401 2.844 3.414 1.219 3.213 2.844 7.631 4.062 11.647 3.454 11.447 6.907 23.094 16.657 23.094 2.234-.402 4.062-1.807 4.062-4.618z" id="c"/></defs><g fill="none" fill-rule="evenodd"><mask id="b" fill="#fff"><use xlink:href="#a"/></mask><path fill="#4285F4" mask="url(#b)" d="M.06 144.2h144V.08H.06z"/><g transform="translate(20 48)"><mask id="d" fill="#fff"><use xlink:href="#c"/></mask><path fill="#4285F4" mask="url(#d)" d="M.257 49.745h102.986V.345H.257z"/></g><path d="M182.625 37.462C185.903 33.82 190.647 32 196.858 32l29.704.103V92.08c0 3.917.378 6.581 1.138 7.988.758 1.408 2.104 2.457 4.036 3.143 4.692 1.443 7.28 2.164 7.764 2.164V113h-10.868c-4.968 0-8.557-1.458-10.765-4.38-2.208-2.92-3.312-7.95-3.312-15.096V41.686h-15.317c-3.244 0-5.641.826-7.193 2.475-1.552 1.648-2.33 4.705-2.33 9.171v4.947h13.456v9.79h-13.559V113h-12.006V68.069H168.5V60.03l9.21-1.752v-4.947c0-6.939 1.639-12.229 4.915-15.87zm72.917 36.944c-.443 1.415-.75 3.106-.919 5.073-.172 1.967-.257 4.331-.257 7.09 0 2.76.103 5.072.306 6.936.205 1.863.564 3.415 1.076 4.658.51 1.241 1.073 2.241 1.687 3 .614.761 1.432 1.347 2.455 1.76 1.705.553 3.835.83 6.395.83 2.558 0 4.415-.086 5.574-.261 1.16-.171 2.318-.55 3.476-1.138 1.162-.587 2.013-1.5 2.56-2.743 1.159-2.76 1.74-6.315 1.74-10.66 0-4.349-.087-7.505-.256-9.472-.172-1.967-.48-3.658-.922-5.073-.443-1.412-.937-2.517-1.484-3.312-.547-.793-1.33-1.398-2.352-1.811-1.634-.69-3.753-1.051-6.342-1.087-2.593-.034-4.433.018-5.524.155-1.09.139-2.166.432-3.222.88-1.058.45-1.877 1.07-2.456 1.863-.58.795-1.091 1.9-1.535 3.312zm-7.722 33.33c-1.911-2.24-3.275-5.035-4.092-8.385-.818-3.344-1.228-8.158-1.228-14.44 0-6.277.8-11.487 2.402-15.628 1.603-4.141 4.127-7.055 7.572-8.747 3.444-1.69 8.302-2.536 14.575-2.536 9.275 0 15.668 2.07 19.182 6.21 3.512 4.141 5.269 11.509 5.269 22.1 0 10.593-1.757 17.857-5.27 21.788-3.513 3.935-9.906 5.902-19.18 5.902-4.704 0-8.61-.486-11.712-1.449-3.103-.966-5.61-2.57-7.518-4.814zm64.722-33.33c-.444 1.415-.752 3.106-.92 5.073-.172 1.967-.257 4.331-.257 7.09 0 2.76.104 5.072.308 6.936.204 1.863.563 3.415 1.073 4.658.512 1.241 1.074 2.241 1.689 3 .613.761 1.431 1.347 2.454 1.76 1.705.553 3.838.83 6.394.83 2.558 0 4.415-.086 5.577-.261 1.157-.171 2.316-.55 3.477-1.138 1.158-.587 2.01-1.5 2.556-2.743 1.162-2.76 1.74-6.315 1.74-10.66 0-4.349-.085-7.505-.254-9.472-.172-1.967-.48-3.658-.921-5.073-.444-1.412-.939-2.517-1.484-3.312-.547-.793-1.332-1.398-2.354-1.811-1.635-.69-3.75-1.051-6.342-1.087-2.593-.034-4.434.018-5.523.155a12.148 12.148 0 0 0-3.224.88c-1.058.45-1.875 1.07-2.454 1.863-.58.795-1.092 1.9-1.535 3.312zm-7.724 33.33c-1.91-2.24-3.273-5.035-4.091-8.385-.82-3.344-1.227-8.158-1.227-14.44 0-6.277.8-11.487 2.404-15.628 1.6-4.141 4.124-7.055 7.569-8.747 3.443-1.69 8.303-2.536 14.578-2.536 9.274 0 15.667 2.07 19.18 6.21 3.512 4.141 5.269 11.509 5.269 22.1 0 10.593-1.757 17.857-5.27 21.788-3.512 3.935-9.905 5.902-19.179 5.902-4.706 0-8.611-.486-11.714-1.449-3.104-.966-5.61-2.57-7.519-4.814zm62.707-21.001c0 11.059 2.799 16.587 8.397 16.587 5.459 0 10.643-1.312 15.55-3.94V69.838c-4.7-1.52-9.883-2.281-15.55-2.281-1.866 0-3.387.45-4.561 1.348-2.558 2.005-3.836 7.948-3.836 17.83zm-12.025-.622c0-11.403 1.691-19.177 5.078-23.325 2.833-3.523 7.154-5.287 12.96-5.287 2.49 0 5.443.347 8.864 1.037 3.422.693 6.48 1.625 9.175 2.799V32H403.5v81.377h-9.538l-2.49-5.805c-1.864 1.52-4.544 2.971-8.035 4.354-3.488 1.384-6.79 2.074-9.9 2.074-12.025 0-18.037-9.295-18.037-27.887z" fill="#4285F4"/><g opacity=".87" fill="#4285F4"><path d="M326 125.7h4.947V138h4.106v-12.3H340V122h-14v3.7M271 138h5v-16h-5zm14.918-12.14c1.544 0 2.822.677 3.727 1.954l3.355-2.45c-1.57-2.243-4.446-3.364-7.082-3.364-5.11 0-8.918 3.703-8.918 8.5 0 4.798 3.754 8.5 8.918 8.5 2.636 0 5.245-1.07 7.082-3.363l-3.301-2.347c-.852 1.148-2.237 1.851-3.78 1.851-2.61 0-4.686-2.06-4.686-4.64 0-2.582 2.05-4.642 4.685-4.642M295 138h14v-3.7h-9.758v-2.6h7.955V128h-7.955v-2.2H309V122h-14v16m47 0h5v-16h-5zm10.972-11.215c0-.883.83-1.423 2.648-1.423 1.578 0 2.808.49 4.252 1.791l2.968-2.404c-1.524-1.89-3.957-2.749-7.06-2.749-3.716 0-7.06 1.865-7.06 4.86 0 6.502 10.028 3.533 10.028 5.987 0 1.055-1.016 1.57-3.102 1.57-1.898 0-3.822-.981-4.545-2.208L348 134.76c2.032 2.233 4.705 3.239 7.514 3.239 3.744 0 7.486-1.914 7.486-5.35 0-6.625-10.028-3.41-10.028-5.865M239 125.7h4.947V138h4.211v-12.3H253V122h-14v3.7m81 3.93L310 122v15.974h4v-7.702L324 138v-15.978h-4v7.608m-57.515-.23h-3.388v-3.7h3.388c1.777 0 2.308.838 2.308 1.862 0 1.05-.53 1.838-2.308 1.838zm6.393-1.85c0-3.122-2.44-5.55-6.154-5.55H255v16h4.097v-4.9h2.3l2.876 4.9H269l-3.411-5.798c1.962-.524 3.29-2.528 3.29-4.651zm-58.878.253h17.13v17.185l5.777-5.74V122h-17.2L210 127.803"/><path d="M210.012 144.994h11.447V133.5h-11.447z"/><path d="M183.524 137.132c-1.335 0-2.596-.433-3.784-1.298l-.396 1.166h-1.804v-16.786h2.2v6.006a10.4 10.4 0 0 1 1.859-.814c.667-.22 1.272-.33 1.815-.33 1.467 0 2.534.473 3.201 1.419.667.946 1.001 2.519 1.001 4.719 0 1.936-.33 3.406-.99 4.411-.66 1.005-1.694 1.507-3.102 1.507zm-.77-1.826c1.775 0 2.662-1.4 2.662-4.202 0-1.144-.114-2.024-.341-2.64-.227-.616-.532-1.034-.913-1.254-.381-.22-.85-.33-1.408-.33-.543 0-1.052.077-1.529.231a8.8 8.8 0 0 0-1.485.649v6.71a9.5 9.5 0 0 0 1.441.605 5.094 5.094 0 0 0 1.573.231zM194.612 137a3.233 3.233 0 0 1-2.002-.704c-.572-.455-.997-1.18-1.276-2.178l-2.64-8.888h2.31l2.376 8.426c.323.997.873 1.496 1.65 1.496l2.75-9.922h2.266l-4.048 14.806-1.056 2.178h-1.76l1.43-5.214z" fill-opacity=".87"/></g></g></svg>
