<svg width="420" height="89" xmlns="http://www.w3.org/2000/svg"><path d="M54 87H.72V1.92H54v15.6H17.28v19.44h33.24v14.76H17.28V71.4H54V87zm27.32 0H65.36V.12h15.96V87zM106 50.76h26.4c-.24-5.88-4.08-11.64-13.2-11.64-8.28 0-12.84 6.24-13.2 11.64zm27.96 15.36l13.32 3.96c-3 10.2-12.36 18.72-26.88 18.72-16.2 0-30.48-11.64-30.48-31.56 0-18.84 13.92-31.08 29.04-31.08 18.24 0 29.16 11.64 29.16 30.6 0 2.28-.24 4.68-.24 4.92h-42.24c.36 7.8 6.96 13.44 14.88 13.44 7.44 0 11.52-3.72 13.44-9zM172.68 87h-15.96V27.96h15.24v7.2c3.24-5.76 10.8-8.88 17.28-8.88 8.04 0 14.52 3.48 17.52 9.84 4.68-7.2 10.92-9.84 18.72-9.84 10.92 0 21.36 6.6 21.36 22.44V87h-15.48V51.96c0-6.36-3.12-11.16-10.44-11.16-6.84 0-10.92 5.28-10.92 11.64V87h-15.84V51.96c0-6.36-3.24-11.16-10.44-11.16-6.96 0-11.04 5.16-11.04 11.64V87zm98-36.24h26.4c-.24-5.88-4.08-11.64-13.2-11.64-8.28 0-12.84 6.24-13.2 11.64zm27.96 15.36l13.32 3.96c-3 10.2-12.36 18.72-26.88 18.72-16.2 0-30.48-11.64-30.48-31.56 0-18.84 13.92-31.08 29.04-31.08 18.24 0 29.16 11.64 29.16 30.6 0 2.28-.24 4.68-.24 4.92h-42.24c.36 7.8 6.96 13.44 14.88 13.44 7.44 0 11.52-3.72 13.44-9zm38.72-13.08V87H321.4V27.96h15.48v7.32c3.6-6.12 10.68-8.88 17.04-8.88 14.64 0 21.36 10.44 21.36 23.4V87h-15.96V52.56c0-6.6-3.24-11.76-10.92-11.76-6.96 0-11.04 5.4-11.04 12.24zm69.8-42.72v17.64h11.88v14.16h-11.88v24.72c0 5.16 2.4 6.84 6.96 6.84 1.92 0 4.08-.24 4.92-.48v13.2c-1.44.6-4.32 1.44-9 1.44-11.52 0-18.72-6.84-18.72-18.24V42.12h-10.68V27.96h3c6.24 0 9.12-4.08 9.12-9.36v-8.28h14.4z" fill="#000" fill-rule="evenodd"/></svg>
